<?xml version="1.0" encoding="UTF-8" standalone="no"?>
<!-- Created with Inkscape (http://www.inkscape.org/) -->

<svg
   xmlns:dc="http://purl.org/dc/elements/1.1/"
   xmlns:cc="http://creativecommons.org/ns#"
   xmlns:rdf="http://www.w3.org/1999/02/22-rdf-syntax-ns#"
   xmlns:svg="http://www.w3.org/2000/svg"
   xmlns="http://www.w3.org/2000/svg"
   xmlns:sodipodi="http://sodipodi.sourceforge.net/DTD/sodipodi-0.dtd"
   xmlns:inkscape="http://www.inkscape.org/namespaces/inkscape"
   width="210mm"
   height="297mm"
   viewBox="0 0 744.09448819 1052.3622047"
   id="svg37213"
   version="1.1"
   inkscape:version="0.91 r13725"
   sodipodi:docname="07-camel-MH.svg">
  <defs
     id="defs37215">
    <clipPath
       id="clipPath37866"
       clipPathUnits="userSpaceOnUse">
      <path
         inkscape:connector-curvature="0"
         id="path37868"
         d="m -1021,-463 2815,0 0,1696 -2815,0 0,-1696 z" />
    </clipPath>
    <clipPath
       id="clipPath37886"
       clipPathUnits="userSpaceOnUse">
      <path
         inkscape:connector-curvature="0"
         id="path37888"
         d="m -1021,-463 2815,0 0,1696 -2815,0 0,-1696 z" />
    </clipPath>
    <clipPath
       id="clipPath37914"
       clipPathUnits="userSpaceOnUse">
      <path
         inkscape:connector-curvature="0"
         id="path37916"
         d="m 28.934375,37.54375 669.600005,0 0,217.44 -669.600005,0 0,-217.44 z" />
    </clipPath>
    <clipPath
       id="clipPath38029"
       clipPathUnits="userSpaceOnUse">
      <path
         inkscape:connector-curvature="0"
         id="path38031"
         d="m -1021,-463 2815,0 0,1696 -2815,0 0,-1696 z" />
    </clipPath>
    <clipPath
       id="clipPath38049"
       clipPathUnits="userSpaceOnUse">
      <path
         inkscape:connector-curvature="0"
         id="path38051"
         d="m -1021,-463 2815,0 0,1696 -2815,0 0,-1696 z" />
    </clipPath>
    <clipPath
       id="clipPath38151"
       clipPathUnits="userSpaceOnUse">
      <path
         inkscape:connector-curvature="0"
         id="path38153"
         d="m 55.465625,41.41875 334.799995,0 0,217.44 -334.799995,0 0,-217.44 z" />
    </clipPath>
    <clipPath
       id="clipPath38264"
       clipPathUnits="userSpaceOnUse">
      <path
         inkscape:connector-curvature="0"
         id="path38266"
         d="m 47.653125,41.41875 334.799995,0 0,217.44 -334.799995,0 0,-217.44 z" />
    </clipPath>
    <clipPath
       id="clipPath38286"
       clipPathUnits="userSpaceOnUse">
      <path
         inkscape:connector-curvature="0"
         id="path38288"
         d="m -1021,-463 2815,0 0,1696 -2815,0 0,-1696 z" />
    </clipPath>
    <clipPath
       id="clipPath38306"
       clipPathUnits="userSpaceOnUse">
      <path
         inkscape:connector-curvature="0"
         id="path38308"
         d="m -1021,-463 2815,0 0,1696 -2815,0 0,-1696 z" />
    </clipPath>
    <clipPath
       id="clipPath38410"
       clipPathUnits="userSpaceOnUse">
      <path
         inkscape:connector-curvature="0"
         id="path38412"
         d="m 47.653125,41.41875 334.799995,0 0,217.44 -334.799995,0 0,-217.44 z" />
    </clipPath>
  </defs>
  <sodipodi:namedview
     id="base"
     pagecolor="#ffffff"
     bordercolor="#666666"
     borderopacity="1.0"
     inkscape:pageopacity="0.0"
     inkscape:pageshadow="2"
     inkscape:zoom="0.7"
     inkscape:cx="317.40165"
     inkscape:cy="785.78752"
     inkscape:document-units="px"
     inkscape:current-layer="layer1"
     showgrid="false"
     inkscape:window-width="1440"
     inkscape:window-height="790"
     inkscape:window-x="1"
     inkscape:window-y="0"
     inkscape:window-maximized="0" />
  <metadata
     id="metadata37218">
    <rdf:RDF>
      <cc:Work
         rdf:about="">
        <dc:format>image/svg+xml</dc:format>
        <dc:type
           rdf:resource="http://purl.org/dc/dcmitype/StillImage" />
        <dc:title></dc:title>
      </cc:Work>
    </rdf:RDF>
  </metadata>
  <g
     inkscape:label="Layer 1"
     inkscape:groupmode="layer"
     id="layer1">
    <g
       transform="matrix(0.6484433,0,0,-0.6484433,146.14113,264.30052)"
       inkscape:label="07-camel_2"
       id="g37788">
      <path
         inkscape:connector-curvature="0"
         id="path37790"
         style="fill:#ffffff;fill-opacity:1;fill-rule:nonzero;stroke:none"
         d="m 0,0 709.23438,0 0,265.68375 L 0,265.68375 0,0 Z" />
      <path
         inkscape:connector-curvature="0"
         id="path37792"
         style="fill:#ffffff;fill-opacity:1;fill-rule:nonzero;stroke:none"
         d="m 28.934375,37.54375 669.600005,0 0,217.44 -669.600005,0 0,-217.44 z" />
      <path
         inkscape:connector-curvature="0"
         id="path37794"
         style="fill:#000000;fill-opacity:1;fill-rule:nonzero;stroke:#000000;stroke-width:0.80000001;stroke-linecap:butt;stroke-linejoin:round;stroke-miterlimit:10;stroke-dasharray:none;stroke-opacity:1"
         d="m 59.370739,37.54375 0,-3.5" />
      <text
         id="text37796"
         style="font-variant:normal;font-weight:normal;font-size:10px;font-family:DejaVuSans;-inkscape-font-specification:DejaVuSans;writing-mode:lr-tb;fill:#000000;fill-opacity:1;fill-rule:nonzero;stroke:none"
         transform="matrix(1,0,0,-1,56.191051,22.95)">
        <tspan
           id="tspan37798"
           y="0"
           x="0">0</tspan>
      </text>
      <path
         inkscape:connector-curvature="0"
         id="path37800"
         style="fill:#000000;fill-opacity:1;fill-rule:nonzero;stroke:#000000;stroke-width:0.80000001;stroke-linecap:butt;stroke-linejoin:round;stroke-miterlimit:10;stroke-dasharray:none;stroke-opacity:1"
         d="m 135.49971,37.54375 0,-3.5" />
      <text
         id="text37802"
         style="font-variant:normal;font-weight:normal;font-size:10px;font-family:DejaVuSans;-inkscape-font-specification:DejaVuSans;writing-mode:lr-tb;fill:#000000;fill-opacity:1;fill-rule:nonzero;stroke:none"
         transform="matrix(1,0,0,-1,122.78096,22.95)">
        <tspan
           id="tspan37804"
           sodipodi:role="line"
           y="0"
           x="0 6.3600001 12.72 19.08">2500</tspan>
      </text>
      <path
         inkscape:connector-curvature="0"
         id="path37806"
         style="fill:#000000;fill-opacity:1;fill-rule:nonzero;stroke:#000000;stroke-width:0.80000001;stroke-linecap:butt;stroke-linejoin:round;stroke-miterlimit:10;stroke-dasharray:none;stroke-opacity:1"
         d="m 211.62869,37.54375 0,-3.5" />
      <text
         id="text37808"
         style="font-variant:normal;font-weight:normal;font-size:10px;font-family:DejaVuSans;-inkscape-font-specification:DejaVuSans;writing-mode:lr-tb;fill:#000000;fill-opacity:1;fill-rule:nonzero;stroke:none"
         transform="matrix(1,0,0,-1,198.90994,22.95)">
        <tspan
           id="tspan37810"
           sodipodi:role="line"
           y="0"
           x="0 6.3600001 12.72 19.08">5000</tspan>
      </text>
      <path
         inkscape:connector-curvature="0"
         id="path37812"
         style="fill:#000000;fill-opacity:1;fill-rule:nonzero;stroke:#000000;stroke-width:0.80000001;stroke-linecap:butt;stroke-linejoin:round;stroke-miterlimit:10;stroke-dasharray:none;stroke-opacity:1"
         d="m 287.75766,37.54375 0,-3.5" />
      <text
         id="text37814"
         style="font-variant:normal;font-weight:normal;font-size:10px;font-family:DejaVuSans;-inkscape-font-specification:DejaVuSans;writing-mode:lr-tb;fill:#000000;fill-opacity:1;fill-rule:nonzero;stroke:none"
         transform="matrix(1,0,0,-1,275.03891,22.95)">
        <tspan
           id="tspan37816"
           sodipodi:role="line"
           y="0"
           x="0 6.3600001 12.72 19.08">7500</tspan>
      </text>
      <path
         inkscape:connector-curvature="0"
         id="path37818"
         style="fill:#000000;fill-opacity:1;fill-rule:nonzero;stroke:#000000;stroke-width:0.80000001;stroke-linecap:butt;stroke-linejoin:round;stroke-miterlimit:10;stroke-dasharray:none;stroke-opacity:1"
         d="m 363.88663,37.54375 0,-3.5" />
      <text
         id="text37820"
         style="font-variant:normal;font-weight:normal;font-size:10px;font-family:DejaVuSans;-inkscape-font-specification:DejaVuSans;writing-mode:lr-tb;fill:#000000;fill-opacity:1;fill-rule:nonzero;stroke:none"
         transform="matrix(1,0,0,-1,347.9882,22.95)">
        <tspan
           id="tspan37822"
           sodipodi:role="line"
           y="0"
           x="0 6.3600001 12.72 19.08 25.440001">10000</tspan>
      </text>
      <path
         inkscape:connector-curvature="0"
         id="path37824"
         style="fill:#000000;fill-opacity:1;fill-rule:nonzero;stroke:#000000;stroke-width:0.80000001;stroke-linecap:butt;stroke-linejoin:round;stroke-miterlimit:10;stroke-dasharray:none;stroke-opacity:1"
         d="m 440.01561,37.54375 0,-3.5" />
      <text
         id="text37826"
         style="font-variant:normal;font-weight:normal;font-size:10px;font-family:DejaVuSans;-inkscape-font-specification:DejaVuSans;writing-mode:lr-tb;fill:#000000;fill-opacity:1;fill-rule:nonzero;stroke:none"
         transform="matrix(1,0,0,-1,424.11717,22.95)">
        <tspan
           id="tspan37828"
           sodipodi:role="line"
           y="0"
           x="0 6.3600001 12.72 19.08 25.440001">12500</tspan>
      </text>
      <path
         inkscape:connector-curvature="0"
         id="path37830"
         style="fill:#000000;fill-opacity:1;fill-rule:nonzero;stroke:#000000;stroke-width:0.80000001;stroke-linecap:butt;stroke-linejoin:round;stroke-miterlimit:10;stroke-dasharray:none;stroke-opacity:1"
         d="m 516.14458,37.54375 0,-3.5" />
      <text
         id="text37832"
         style="font-variant:normal;font-weight:normal;font-size:10px;font-family:DejaVuSans;-inkscape-font-specification:DejaVuSans;writing-mode:lr-tb;fill:#000000;fill-opacity:1;fill-rule:nonzero;stroke:none"
         transform="matrix(1,0,0,-1,500.24614,22.95)">
        <tspan
           id="tspan37834"
           sodipodi:role="line"
           y="0"
           x="0 6.3600001 12.72 19.08 25.440001">15000</tspan>
      </text>
      <path
         inkscape:connector-curvature="0"
         id="path37836"
         style="fill:#000000;fill-opacity:1;fill-rule:nonzero;stroke:#000000;stroke-width:0.80000001;stroke-linecap:butt;stroke-linejoin:round;stroke-miterlimit:10;stroke-dasharray:none;stroke-opacity:1"
         d="m 592.27355,37.54375 0,-3.5" />
      <text
         id="text37838"
         style="font-variant:normal;font-weight:normal;font-size:10px;font-family:DejaVuSans;-inkscape-font-specification:DejaVuSans;writing-mode:lr-tb;fill:#000000;fill-opacity:1;fill-rule:nonzero;stroke:none"
         transform="matrix(1,0,0,-1,576.37512,22.95)">
        <tspan
           id="tspan37840"
           sodipodi:role="line"
           y="0"
           x="0 6.3600001 12.72 19.08 25.440001">17500</tspan>
      </text>
      <path
         inkscape:connector-curvature="0"
         id="path37842"
         style="fill:#000000;fill-opacity:1;fill-rule:nonzero;stroke:#000000;stroke-width:0.80000001;stroke-linecap:butt;stroke-linejoin:round;stroke-miterlimit:10;stroke-dasharray:none;stroke-opacity:1"
         d="m 668.40253,37.54375 0,-3.5" />
      <text
         id="text37844"
         style="font-variant:normal;font-weight:normal;font-size:10px;font-family:DejaVuSans;-inkscape-font-specification:DejaVuSans;writing-mode:lr-tb;fill:#000000;fill-opacity:1;fill-rule:nonzero;stroke:none"
         transform="matrix(1,0,0,-1,652.50409,22.95)">
        <tspan
           id="tspan37846"
           sodipodi:role="line"
           y="0"
           x="0 6.3600001 12.72 19.08 25.440001">20000</tspan>
      </text>
      <text
         id="text37848"
         style="font-variant:normal;font-weight:normal;font-size:10px;font-family:DejaVuSans;-inkscape-font-specification:DejaVuSans;writing-mode:lr-tb;fill:#000000;fill-opacity:1;fill-rule:nonzero;stroke:none"
         transform="matrix(1,0,0,-1,339.99219,9.278125)">
        <tspan
           id="tspan37850"
           sodipodi:role="line"
           y="0"
           x="0 2.78 6.6999998 12.85 16.959999 23.09 27.01 29.790001 35.91 42.25">iterations</tspan>
      </text>
      <path
         inkscape:connector-curvature="0"
         id="path37852"
         style="fill:#000000;fill-opacity:1;fill-rule:nonzero;stroke:#000000;stroke-width:0.80000001;stroke-linecap:butt;stroke-linejoin:round;stroke-miterlimit:10;stroke-dasharray:none;stroke-opacity:1"
         d="m 28.934375,59.28775 -3.5,0" />
      <g
         transform="translate(7.2,55.490875)"
         id="g37854">
        <text
           id="text37856"
           style="font-variant:normal;font-weight:normal;font-size:10px;font-family:DejaVuSans;-inkscape-font-specification:DejaVuSans;writing-mode:lr-tb;fill:#000000;fill-opacity:1;fill-rule:nonzero;stroke:none"
           transform="matrix(1,0,0,-1,8.3789063,0)">
          <tspan
             id="tspan37858"
             y="0"
             x="0">2</tspan>
        </text>
        <g
           transform="scale(0.01,0.01)"
           id="g37860">
          <g
             id="g37862">
            <g
               clip-path="url(#clipPath37866)"
               id="g37864">
              <path
                 inkscape:connector-curvature="0"
                 id="path37870"
                 style="fill:#000000;fill-opacity:1;fill-rule:nonzero;stroke:none"
                 d="m 106,355 626,0 0,-83 -626,0 0,83" />
            </g>
          </g>
        </g>
      </g>
      <path
         inkscape:connector-curvature="0"
         id="path37872"
         style="fill:#000000;fill-opacity:1;fill-rule:nonzero;stroke:#000000;stroke-width:0.80000001;stroke-linecap:butt;stroke-linejoin:round;stroke-miterlimit:10;stroke-dasharray:none;stroke-opacity:1"
         d="m 28.934375,102.77575 -3.5,0" />
      <g
         transform="translate(7.2,98.978875)"
         id="g37874">
        <text
           id="text37876"
           style="font-variant:normal;font-weight:normal;font-size:10px;font-family:DejaVuSans;-inkscape-font-specification:DejaVuSans;writing-mode:lr-tb;fill:#000000;fill-opacity:1;fill-rule:nonzero;stroke:none"
           transform="matrix(1,0,0,-1,8.3789063,0)">
          <tspan
             id="tspan37878"
             y="0"
             x="0">1</tspan>
        </text>
        <g
           transform="scale(0.01,0.01)"
           id="g37880">
          <g
             id="g37882">
            <g
               clip-path="url(#clipPath37886)"
               id="g37884">
              <path
                 inkscape:connector-curvature="0"
                 id="path37890"
                 style="fill:#000000;fill-opacity:1;fill-rule:nonzero;stroke:none"
                 d="m 106,355 626,0 0,-83 -626,0 0,83" />
            </g>
          </g>
        </g>
      </g>
      <path
         inkscape:connector-curvature="0"
         id="path37892"
         style="fill:#000000;fill-opacity:1;fill-rule:nonzero;stroke:#000000;stroke-width:0.80000001;stroke-linecap:butt;stroke-linejoin:round;stroke-miterlimit:10;stroke-dasharray:none;stroke-opacity:1"
         d="m 28.934375,146.26375 -3.5,0" />
      <text
         id="text37894"
         style="font-variant:normal;font-weight:normal;font-size:10px;font-family:DejaVuSans;-inkscape-font-specification:DejaVuSans;writing-mode:lr-tb;fill:#000000;fill-opacity:1;fill-rule:nonzero;stroke:none"
         transform="matrix(1,0,0,-1,15.575,142.46687)">
        <tspan
           id="tspan37896"
           y="0"
           x="0">0</tspan>
      </text>
      <path
         inkscape:connector-curvature="0"
         id="path37898"
         style="fill:#000000;fill-opacity:1;fill-rule:nonzero;stroke:#000000;stroke-width:0.80000001;stroke-linecap:butt;stroke-linejoin:round;stroke-miterlimit:10;stroke-dasharray:none;stroke-opacity:1"
         d="m 28.934375,189.75175 -3.5,0" />
      <text
         id="text37900"
         style="font-variant:normal;font-weight:normal;font-size:10px;font-family:DejaVuSans;-inkscape-font-specification:DejaVuSans;writing-mode:lr-tb;fill:#000000;fill-opacity:1;fill-rule:nonzero;stroke:none"
         transform="matrix(1,0,0,-1,15.575,185.95487)">
        <tspan
           id="tspan37902"
           y="0"
           x="0">1</tspan>
      </text>
      <path
         inkscape:connector-curvature="0"
         id="path37904"
         style="fill:#000000;fill-opacity:1;fill-rule:nonzero;stroke:#000000;stroke-width:0.80000001;stroke-linecap:butt;stroke-linejoin:round;stroke-miterlimit:10;stroke-dasharray:none;stroke-opacity:1"
         d="m 28.934375,233.23975 -3.5,0" />
      <text
         id="text37906"
         style="font-variant:normal;font-weight:normal;font-size:10px;font-family:DejaVuSans;-inkscape-font-specification:DejaVuSans;writing-mode:lr-tb;fill:#000000;fill-opacity:1;fill-rule:nonzero;stroke:none"
         transform="matrix(1,0,0,-1,15.575,229.44287)">
        <tspan
           id="tspan37908"
           y="0"
           x="0">2</tspan>
      </text>
      <g
         id="g37910">
        <g
           clip-path="url(#clipPath37914)"
           id="g37912">
          <path
             inkscape:connector-curvature="0"
             id="path37918"
             style="fill:none;stroke:#1f77b4;stroke-width:1.5;stroke-linecap:square;stroke-linejoin:round;stroke-miterlimit:10;stroke-dasharray:none;stroke-opacity:1"
             d="m 59.370739,148.20471 0.304516,-5.17149 0.304515,-13.90554 0.304516,-4.30495 0.304516,1.83641 0.304516,-29.576456 0.304516,34.906066 0.304516,9.55656 0.304516,-3.29436 0.609032,26.34575 0.609031,-34.48237 0.304516,0.31206 0.304516,-7.38536 0.304516,-15.80411 0.304516,-4.79499 0.304516,-9.469959 0.304516,8.130719 0.304516,16.20232 0.304516,-12.97312 0.304515,11.67385 0.609032,36.5244 0.304516,-13.14395 0.304516,9.62292 0.304516,-17.87459 0.304516,-5.91462 0.304516,12.02377 0.304516,-7.01478 0.304515,5.05614 0.304516,1.84692 0.304516,-1.73312 0.304516,-12.36655 0.304516,8.94096 0.304516,-16.00429 0.304516,-8.44359 0.304516,7.25561 0.304516,-11.76573 0.304516,-1.18823 0.304515,-7.047141 0.304516,-0.789982 0.304516,-8.714299 0.304516,-2.998285 0.304516,-1.887164 0.304516,9.723808 0.304516,-8.466896 0.304516,0.362479 0.609031,-13.241901 0.304516,11.596187 0.304516,2.917038 0.304516,16.155794 0.304516,2.827352 0.304516,-6.696099 0.304516,9.277749 0.304516,0.53505 0.304516,1.27097 0.304516,-3.76478 0.304515,-16.023271 0.304516,-1.280174 0.304516,9.448499 0.304516,25.821126 0.304516,-0.0946 0.304516,-0.36958 0.304516,-25.520318 0.304516,-7.594982 0.609031,13.69928 0.304516,18.71222 0.304516,2.93232 0.304516,5.83341 0.304516,10.38969 0.304516,-10.06736 0.304516,-2.01081 0.304516,-15.62916 0.304516,4.52282 0.304515,-5.53306 0.304516,-17.017893 0.304516,1.587005 0.304516,17.993148 0.304516,8.77508 0.913548,-26.714555 0.304516,16.836505 0.304516,-13.039596 0.304515,12.485406 0.304516,-6.5872 0.304516,-2.16838 0.304516,-0.0223 0.304516,8.12932 0.304516,-0.29555 0.609032,34.97581 0.304516,6.51395 0.304515,-5.52286 0.304516,21.18373 0.304516,9.03695 0.304516,-4.8828 0.304516,-0.46724 0.304516,7.1854 0.304516,17.39219 0.304516,-8.90689 0.304516,8.22427 0.304516,-10.62659 0.304515,-4.83073 0.304516,13.37617 0.304516,-16.11677 0.304516,8.6567 0.304516,-0.0425 0.304516,-17.80021 0.304516,4.9283 0.304516,15.32799 0.304516,8.92618 0.609031,-13.51505 0.609032,-42.1285 0.304516,0.22308 0.304516,-30.03558 0.304516,-10.66347 0.304516,2.77119 0.304516,14.57768 0.304516,5.32407 0.609031,-22.00689 0.304516,-2.159449 0.304516,6.606529 0.304516,3.48026 0.609032,27.39734 0.304516,-19.55142 0.304516,24.55459 0.304517,-26.06139 0.30451,-14.95283 0.30452,-3.756759 0.30452,1.280001 0.30451,3.282248 0.30452,-7.088362 0.30451,7.063522 0.30452,-11.473501 0.30452,13.176911 0.30451,-0.22739 0.30452,-6.432491 0.30451,-14.426028 0.30452,11.585593 0.30451,5.654723 0.60904,19.194803 0.91355,-24.488595 0.30451,4.164759 0.30452,7.856476 0.30451,-21.123257 0.30452,-6.482658 0.30451,-0.09474 0.30452,6.835254 0.30452,-13.359316 0.60903,27.1669 0.30451,3.356067 0.30452,-3.693765 0.30452,-22.968622 0.30451,-3.12141 0.30452,4.094018 0.30451,9.391432 0.30452,-7.582019 0.30452,2.577598 0.60903,16.23796 0.30451,2.164677 0.30452,8.350201 0.30451,-5.39782 0.30452,3.65323 0.30452,-0.16892 0.30451,-14.320621 0.30452,-0.3783 0.30451,-4.129917 0.30452,0.890352 0.30452,2.519864 0.30451,9.371493 0.60903,8.108549 0.30452,-7.92797 0.30452,29.93079 0.60903,-12.80061 0.60903,19.83933 0.30451,-11.62806 0.30452,0.3362 0.30452,0.0923 0.30451,-2.6748 0.30452,11.39573 0.30451,-6.97746 0.30452,-16.08286 0.30452,1.14594 0.30451,-11.52146 0.60903,-5.732252 0.60904,35.502212 0.30451,-14.00034 0.30452,8.13205 0.30451,27.53403 0.30452,-8.77942 0.30452,1.33785 0.30451,11.48201 0.30452,-3.79757 0.30451,13.47068 0.30452,-11.33323 0.30451,2.84331 0.30452,1.33644 0.30452,-3.64102 0.30451,2.51393 0.30452,32.05019 0.30451,5.21249 0.30452,14.53541 0.30452,1.69864 0.30451,-8.30215 0.30452,-2.04784 0.30451,-6.82888 0.30452,-0.94349 0.30452,-7.47623 0.30451,9.74488 0.30452,13.52119 0.30451,-6.03947 0.30452,0.8766 0.30451,-8.32881 0.30452,13.3693 0.60903,7.79131 0.30452,-7.5105 0.30451,-22.46115 0.30452,1.26266 0.30452,12.57701 0.30451,-15.19341 0.30452,4.28356 0.30451,-2.56624 0.30452,7.67916 0.30451,-0.83018 0.60904,2.47275 0.30451,16.03311 0.30452,-0.37797 0.30451,-14.28253 0.30452,3.11799 0.30452,5.41951 0.30451,-6.78937 0.30452,-3.33779 0.30451,21.49512 0.30452,8.59167 0.30452,-5.54572 0.30451,-22.39982 0.30452,-4.39332 0.30451,-0.68798 0.30452,-0.96706 0.60903,15.77545 0.30452,-6.38291 0.30451,-13.04363 0.30452,5.41685 0.30451,16.56147 0.30452,-1.49869 0.30452,13.67028 0.30451,-6.67516 0.30452,-25.69169 0.30451,7.41444 0.30452,-5.33662 0.30452,4.98482 0.30451,-16.35816 0.30452,-7.62782 0.30451,19.36179 0.30452,4.24585 0.30451,-4.34758 0.30452,9.54757 0.30452,2.57426 0.30451,8.69398 0.30452,-17.33422 0.30451,-4.44756 0.30452,0.0417 0.60903,-37.24473 0.60903,-10.58292 0.30452,15.34105 0.30452,22.84976 0.30451,-2.21047 0.30452,4.7335 0.30451,7.75257 0.30452,-1.17196 0.30452,10.1987 0.60903,-21.44996 0.30451,7.17872 0.30452,-9.30375 0.30451,6.38919 0.30452,14.64402 0.30452,-10.32363 0.30451,6.05907 0.60903,17.83872 0.30452,0.83372 0.30452,-22.342 0.30451,-8.21096 0.30452,3.56585 0.30451,9.33131 0.30452,-2.92397 0.30452,8.91759 0.30451,4.54825 0.30452,-18.67806 0.30451,2.6973 0.30452,4.98658 0.30451,-29.35685 0.30452,-7.60652 0.30452,-3.083 0.30451,1.79458 0.30452,30.5972 0.30451,16.40154 0.30452,-21.21 0.30452,13.27033 0.30451,-6.37732 0.30452,-1.5609 0.30451,-7.52587 0.30452,17.55632 0.30452,-9.96773 0.30451,-3.49045 0.30452,0.43942 0.30451,-1.83199 0.30452,-5.75349 0.30452,18.48066 0.30451,8.16333 0.30452,-7.76879 0.30451,4.09877 0.30452,-9.79777 0.30451,-18.09652 0.30452,5.17293 0.30452,-11.38742 0.30451,8.38474 0.30452,-11.7038 0.30451,15.41241 0.30452,7.05013 0.30452,4.28112 0.30451,-11.43992 0.30452,-2.43421 0.30451,-11.73141 0.30452,8.52371 0.30452,-2.43985 0.30451,2.65972 0.30452,14.93531 0.60903,-34.59911 0.30451,-7.83473 0.30452,8.42582 0.30452,18.57257 0.30451,5.53138 0.30452,1.22321 0.30451,2.51805 0.30452,7.66887 0.30452,0.69435 0.30451,14.16251 0.30452,-0.60243 0.30451,-1.60476 0.30452,2.15793 0.30452,-1.5665 0.30451,3.07853 0.30452,0.41407 0.30451,-10.79886 0.30452,-0.88876 0.60903,-36.37649 0.30452,-1.59281 0.60903,5.52039 0.30451,6.17269 0.30452,-13.11574 0.30452,11.72271 0.30451,4.82081 0.30452,8.62421 0.30451,14.27125 0.30452,-4.59093 0.30452,-1.36064 0.30451,11.6401 0.30452,-15.22284 0.30451,-0.12018 0.30452,-6.34697 0.30452,-2.90848 0.60903,5.49409 0.30451,4.95209 0.60903,35.98799 0.30452,1.79079 0.30452,-19.87291 0.30451,3.24887 0.30452,-18.8468 0.30451,8.29971 0.30452,2.74742 0.60903,19.54237 0.30452,-8.33647 0.30451,-12.68358 0.30452,6.32157 0.30452,1.56127 0.30451,-13.95755 0.30452,-4.33955 0.30451,10.43895 0.60903,4.92841 0.30452,-26.59111 0.30452,-15.59646 0.60903,17.85183 0.30451,2.58424 0.60904,-28.7415 0.30451,7.5378 0.30452,2.08011 0.30451,-10.23291 0.30452,-3.46382 0.60903,-24.97051 0.30452,-1.23343 0.30451,-2.3289 0.30452,-8.06299 0.30452,-1.43744 0.30451,-0.63998 0.30452,15.15671 0.60903,-18.07513 0.30451,0.43092 0.30452,-15.263131 0.30452,2.439407 0.30451,6.266784 0.30452,-10.340552 0.30451,10.787692 0.30452,-18.753548 0.30452,6.455056 0.30451,1.853173 0.60903,11.018199 0.30452,-15.64281 0.30452,-2.968124 0.30451,7.779705 0.30452,22.038719 0.30451,-3.30012 0.30452,-21.527966 0.30451,2.705921 0.30452,11.353175 0.60903,10.7734 0.30452,0.68464 0.60903,2.72624 0.30452,16.79968 0.30451,-18.39264 0.60903,-14.35976 0.30452,8.65023 0.30452,-10.711539 0.30451,9.621419 0.30452,-3.14321 0.30451,5.30805 0.30452,-5.41524 0.30451,-14.86985 0.30452,8.472261 0.30452,-5.264445 0.30451,-0.552022 0.30452,14.939846 0.30451,6.85864 0.30452,39.73879 0.30452,8.91218 0.30451,-4.11279 0.30452,24.47882 0.30451,11.0212 0.30452,6.26818 0.30452,-17.32472 0.30451,-0.47243 0.30452,-1.24695 0.30451,10.99116 0.60904,-5.36738 0.30451,15.72041 0.30452,-28.1339 0.30451,1.44551 0.30452,3.02668 0.30451,-3.0329 0.30452,0.44961 0.30452,-2.80012 0.30451,12.07164 0.30452,-7.60774 0.30451,6.36657 0.30452,-0.27002 0.30452,-0.61369 0.30451,10.76499 0.30452,-6.83823 0.30451,-28.46616 0.30452,14.7802 0.30452,0.47598 0.30451,4.75331 0.30452,-5.86937 0.30451,3.76973 0.30452,28.23297 0.30451,-1.98788 0.30452,-3.06556 0.30452,7.21899 0.30451,3.1584 0.30452,-0.19962 0.30451,-16.85322 0.30452,5.89866 0.30452,-25.82197 0.30451,12.61114 0.30452,-16.75166 0.30451,4.77505 0.30452,13.73237 0.30452,3.06318 0.30451,-5.28637 0.30452,20.74872 0.30451,-11.22083 0.30452,-3.64068 0.30452,0.0626 0.30451,-6.06771 0.30452,1.55833 0.30451,16.90841 0.30452,-14.47785 0.30451,6.43492 0.30452,-7.32485 0.30452,1.62075 0.30451,-16.29634 0.30452,-0.15699 0.30451,7.08704 0.30452,25.89783 0.30452,-1.03301 0.60903,-14.78445 0.30451,2.6685 0.30452,-3.46146 0.30452,-7.50714 0.30451,14.84176 0.30452,8.77293 0.30451,-9.13733 0.30452,14.34927 0.30451,-16.63825 0.60904,14.80018 0.30451,3.75319 0.30452,-1.7535 0.30451,-2.43639 0.30452,-7.06168 0.30452,-16.73818 0.30451,11.40939 0.30452,-1.64095 0.30451,4.68148 0.30452,-5.17461 0.30452,14.25164 0.30451,-27.14915 0.30452,8.1728 0.30451,-1.86115 0.30452,16.70649 0.30451,-0.07 0.30452,-0.56847 0.30452,-4.15788 0.30451,-22.063 0.30452,2.31742 0.30451,-2.71695 0.30452,14.87676 0.30452,-8.95875 0.30451,19.947 0.30452,9.45632 0.30451,-9.01407 0.30452,16.86008 0.30452,-10.46692 0.60903,-25.61951 0.30451,-11.52381 0.30452,26.37401 0.91355,-13.77725 0.60903,12.84828 0.30451,1.81036 0.30452,7.28865 0.60903,-5.7843 0.60903,-28.14724 0.30452,-28.14435 0.30452,-9.01269 0.30451,-12.94122 0.91355,42.04554 0.30452,-23.92716 0.30451,21.27818 0.30452,1.51895 0.30451,21.31387 0.60903,29.66351 0.30452,-14.4903 0.30452,-30.70259 0.30451,-3.36039 0.30452,-7.35252 0.30451,-1.86088 0.30452,-6.60357 0.30452,-13.69487 0.30451,7.4632 0.30452,37.92521 0.30451,4.20814 0.30452,21.92143 0.30452,-6.96717 0.30451,0.0255 0.30452,4.67147 0.30451,-7.6823 0.30452,15.95567 0.30451,-0.51723 0.30452,-5.44404 0.30452,-1.72439 0.30451,9.57733 0.30452,-6.79382 0.30451,-9.65849 0.30452,-5.10754 0.30452,1.05952 0.60903,10.38812 0.30451,-2.97086 0.30452,-1.33971 0.30452,9.15835 0.30451,-28.61202 0.30452,3.75985 0.60903,-12.11641 0.30452,18.58735 0.30451,-3.26395 0.30452,10.48042 0.30451,-2.80455 0.30452,9.54106 0.30452,-14.36406 0.30451,24.99264 0.30452,-1.90833 0.30451,-0.39937 0.30452,4.99439 0.30451,-10.33826 0.60904,6.9397 0.30451,-0.97209 0.30452,-8.04866 0.30451,5.94741 0.30452,-10.53058 0.30452,-3.80552 0.30451,-8.26372 0.30452,-19.24714 0.30451,7.47302 0.30452,-13.1505 0.30451,-2.09569 0.30452,15.98547 0.30452,-3.50757 0.30451,10.87486 0.30452,-4.87213 0.30452,10.66074 0.60903,12.24949 0.60903,-13.03963 0.30451,1.67603 0.30452,-9.12401 0.30452,-4.75108 0.30451,7.62632 0.30452,-4.0747 0.30451,-5.79861 0.60904,9.71891 0.30451,-23.48874 0.30452,1.45483 0.30451,-10.64058 0.30452,5.06573 0.30451,-9.07783 0.30452,5.02597 0.60903,27.59917 0.30452,5.83455 0.30451,11.84825 0.30452,-16.79861 0.30452,-5.81809 0.30451,-21.25981 0.30452,-4.35674 0.30451,8.25199 0.30452,-17.34417 0.30452,1.79721 0.30451,-5.48977 0.30452,5.8349 0.30451,-2.4159 0.30452,4.51949 0.30452,-15.01133 0.30451,-9.03178 0.30452,6.08548 0.60903,-10.7252 0.30451,-0.76945 0.60904,14.07086 0.30451,-5.89861 0.30452,-36.709606 0.30451,-4.695697 0.60904,32.852793 0.30451,-10.4404 0.30452,7.1317 0.30451,-5.6364 0.30452,2.94424 0.30451,21.81073 0.60904,-26.88086 0.30451,11.70758 0.30452,2.67007 0.30451,6.31072 0.30452,3.47813 0.30452,-13.67805 0.30451,-1.06397 0.30452,4.15625 0.30451,-12.07629 0.30452,9.6757 0.30452,-9.2076 0.30451,-23.558995 0.60903,31.905435 0.30452,2.71864 0.30452,15.9732 0.30451,29.88168 0.30452,-4.90965 0.30451,-23.90791 0.30452,10.17066 0.30451,-5.83375 0.60904,-28.74799 0.30451,-0.40411 0.30452,7.37685 0.30451,0.32848 0.30452,21.22753 0.30452,-5.74176 0.30451,6.57385 0.30452,-17.71652 0.30451,-7.22625 0.30452,-18.778994 0.30452,33.677864 0.30451,7.65022 0.30452,10.70007 0.30451,-11.06227 0.30452,14.41043 0.30451,-12.0513 0.30452,1.03513 0.30452,30.36937 0.30451,4.19879 0.60903,13.14099 0.30452,2.98604 0.30452,6.20998 0.30451,-12.01301 0.30452,-18.76109 0.30451,4.87159 0.30452,11.67049 0.30452,3.33284 0.30451,-6.57908 0.30452,8.2001 0.30451,-0.45732 0.30452,15.54837 0.30451,-19.70164 0.30452,-0.71852 0.30452,6.28732 0.30451,-17.66081 0.30452,-6.47115 0.30451,-1.9483 0.30452,17.3433 0.30452,-5.05876 0.30451,4.2221 0.30452,23.0482 0.30451,-21.28214 0.30452,11.11541 0.30452,-4.84427 0.30451,6.60592 0.60903,-27.45951 0.30452,-7.45628 0.30452,20.13052 0.30451,3.10874 0.30452,-13.92782 0.30451,-4.06598 0.30452,-9.86781 0.30451,-5.74109 0.60904,-40.50419 0.60903,-31.537126 0.30451,21.531176 0.30452,-13.689851 0.30452,13.423491 0.30451,7.38941 0.30452,-0.58822 0.30451,2.22816 0.30452,17.12175 0.30452,2.06494 0.60903,-24.94637 0.30451,-3.92299 0.30452,-19.686725 0.30452,20.433715 0.30451,10.10647 0.30452,-7.7551 0.30451,0.72883 0.30452,-4.22604 0.30452,3.82767 0.60903,-9.753168 0.60903,24.013818 0.30451,7.36382 0.30452,-1.78571 0.60903,-35.869759 0.30452,15.098459 0.30451,5.36948 0.60904,-17.712645 0.30451,14.884355 0.30452,4.14502 0.30451,10.4609 0.30452,-5.69252 0.30451,9.06207 0.60904,34.99442 0.30451,-0.76392 0.30452,-5.32035 0.30451,-9.0627 0.60904,-27.58838 0.30451,7.97329 0.30452,-14.73128 0.30451,-1.69466 0.30452,-0.7205 0.30452,-3.35284 0.30451,9.9082 0.30452,3.96016 0.30451,8.81798 0.60903,-17.93913 0.30452,8.54871 0.30452,-5.17112 0.60903,-16.155992 0.30451,4.18954 0.30452,-7.980562 0.30452,4.11663 0.30451,8.059704 0.30452,11.11253 0.30451,-12.15178 0.60904,32.55881 0.60903,-23.62887 0.30451,-2.48903 0.30452,0.5261 0.30451,23.94154 0.30452,-16.1276 0.30452,-1.57747 0.60903,-13.27593 0.30451,-2.755385 0.30452,19.040305 0.30452,8.33411 0.30451,-4.50062 0.30452,4.06611 0.30451,12.27377 0.30452,23.73283 0.30452,12.64849 0.30451,5.99719 0.30452,2.08517 0.60903,24.56508 0.30452,-17.81737 0.30451,6.61838 0.30452,2.78097 0.60903,-36.33485 0.30451,4.14864 0.30452,-6.94211 0.60903,19.18616 0.30452,-11.94483 0.60903,13.65311 0.30452,-10.47766 0.30451,4.17003 0.30452,-2.16963 0.30451,-16.24237 0.30452,-3.36175 0.30452,-23.36242 0.30451,-1.55154 0.30452,-21.20003 0.30451,15.20594 0.60904,8.66472 0.30451,-6.42716 0.30452,-10.69198 0.30451,-6.42182 0.30452,0.21079 0.30451,-18.929865 0.30452,3.741514 0.30452,-2.912495 0.30451,-12.455339 0.30452,19.862604 0.30451,-1.010105 0.30452,-16.257215 0.30452,12.655304 0.30451,3.254637 0.30452,6.74279 0.30451,-9.974569 0.30452,5.036858 0.30452,-13.088123 0.30451,0.288699 0.30452,17.799155 0.30451,0.1645 0.30452,21.20071 0.30451,-7.35546 0.30452,0.44005 0.30452,-11.44079 0.30451,4.80032 0.30452,13.194 0.30451,22.79152 0.60904,12.9184 0.30451,-4.6046 0.30452,13.17807 0.30451,-6.46019 0.30452,-0.91986 0.60903,21.43113 0.30452,-11.4242 0.30451,5.94254 0.30452,16.42445 0.30451,6.39977 0.30452,-24.15991 0.30452,-5.58056 0.30451,25.99398 0.30452,5.49055 0.30451,-4.35952 0.30452,-20.11377 0.30452,0.49077 0.30451,6.77851 0.30452,-17.6669 0.30451,-2.04701 0.30452,4.51143 0.30452,9.62692 0.30451,2.79949 0.30452,-16.16469 0.30451,26.82725 0.30452,-8.33284 0.30451,6.46825 0.30452,17.43258 0.30452,-10.23433 0.30451,2.5e-4 0.30452,12.47993 0.30452,-14.08964 0.30451,-0.0692 0.30452,0.97546 0.30451,-7.88678 0.30452,-10.90532 0.30451,6.28046 0.30452,-21.97067 0.30452,-4.53606 0.30451,1.03933 0.60903,16.68604 0.30452,-4.22668 0.30452,-12.82024 0.30451,6.91477 0.30452,-3.01765 0.30451,-18.43147 0.30452,-27.81091 0.30451,-7.3604 0.30452,15.52497 0.30452,-7.58403 0.30451,-24.757616 0.30452,-1.255048 0.30451,25.057264 0.30452,-15.983733 0.30452,-0.103358 0.30451,16.550471 0.30452,-10.997 0.30451,-0.074 0.60904,-21.033727 0.30451,12.144028 0.30452,-8.049969 0.30451,11.751399 0.30452,3.318719 0.30451,-9.671005 0.30452,-14.523154 0.30452,18.81728 0.30451,28.843159 0.91355,-26.728645 0.30452,-4.060495 0.30451,4.858177 0.30452,-9.362208 0.30451,13.982871 0.30452,-12.252438 0.30452,9.916438 0.60903,-14.23157 0.30451,-5.597198 0.30452,16.329368 0.30452,0.234663 0.30451,-2.174588 0.30452,3.648295 0.30451,9.02855 0.30452,19.15574 0.30451,-44.880078 0.30452,0.589265 0.30452,-3.563418 0.91354,70.530681 0.30452,3.24032 0.60903,-41.06109 0.30452,1.28165 0.30451,6.6246 0.30452,-5.61677 0.30452,-3.29393 0.30451,17.56306 0.30452,27.01583 0.30451,0.67367 0.30452,1.15876 0.30452,11.2387 0.30451,27.79761 0.30452,-3.08616 0.30451,-14.33147 0.60903,25.39093 0.60904,-41.72408 1.21806,20.34861 0.30452,-4.46047 0.30451,17.56135 0.30452,2.07223 0.30451,-0.51212 0.30452,0.82886 0.30451,13.16719 0.30452,-3.84236 0.30452,-1.12755 0.30451,-9.12698 0.60903,-36.80321 0.30452,-11.58794 0.30452,-5.59754 0.60903,-28.3535 0.30451,8.15354 0.30452,-0.38263 0.30452,-13.98203 0.30451,-7.34993 0.30452,-1.67883 0.30451,4.70986 0.30452,-6.882347 0.30452,8.238047 0.60903,3.70115 0.30451,14.7438 0.30452,-4.63423 0.30451,-23.583446 0.60904,10.591496 0.30451,1.83251 0.30452,13.89734 0.30451,22.37797 0.91355,-31.58 0.91355,45.07625 0.30452,-7.67572 0.30451,9.05737 0.30452,-11.05399 0.30451,-24.8603 0.30452,12.84942 0.30451,5.79892 0.60904,28.79319 0.30451,2.91576 0.30452,-19.00933 0.30451,-11.69482 0.30452,17.56778 0.30452,6.56821 0.30451,16.35678 0.30452,-24.62 0.30451,26.89342 0.60904,-7.25129 0.30451,-1.86686 0.30452,0.32217 0.30451,30.08351 0.30452,-9.34536 0.30451,0.96548 0.30452,-14.79646 0.60903,9.86599 0.30452,-9.77093 0.30451,3.80312 0.30452,13.11459 0.30452,4.47222 0.30451,-22.40695 0.60903,14.98328 0.30452,-6.50335 0.30452,0.0122 0.30451,0.27149 0.30452,-2.41367 0.30451,-18.53636 0.30452,17.42411 0.30452,0.62351 0.60903,18.17813 0.30451,-5.57007 0.30452,6.20294 0.30451,-9.33357 0.30452,-1.94886 0.30452,22.82057 0.30451,-16.64774 0.30452,2.34512 0.30451,8.69332 0.30452,-5.93429 0.30452,-11.90723 0.30451,-19.98385 0.30452,-1.83011 0.30451,21.39896 0.30452,3.45402 0.30452,12.06347 0.30451,-17.64254 0.30452,-10.70914 0.30451,-6.6421 0.30452,17.12106 0.30452,0.64035 0.30451,-10.43672 0.30452,3.45498 0.30451,5.51797 0.30452,9.72695 0.30451,-15.92647 0.30452,-4.25778 0.30452,5.26356 0.30451,-2.22604 0.30452,-14.74876 0.30451,15.78214 0.30452,2.88065 0.30452,-13.73888 0.30451,6.22141 0.30452,-7.90384 0.60903,-3.74888 0.30452,-7.80123 0.60903,34.24204 0.30451,-4.01423 0.30452,-11.08617 0.30451,-6.21328 0.30452,4.2551 0.30452,-5.65178 0.30451,11.0076 0.60903,-10.07644 0.30452,15.28297 0.30452,-21.04913 0.60903,16.05141 0.30451,3.51739 0.30452,17.44788 0.30452,-0.8239 0.60903,-16.06394 0.30451,10.47834 0.30452,-22.84188 0.30451,10.09842 0.30452,-17.00169 0.30452,4.38238 0.30451,2.56378 0.30452,8.44423 0.60903,7.55003 0.30452,-30.03775 0.30451,8.18793 0.30452,-11.09918 0.30451,8.59424 0.30452,-5.64724 0.30452,8.93482 0.30451,15.44511 0.30452,-12.61628 0.30451,1.75089 0.30452,6.0616 0.30452,2.18279 0.30451,-23.51441 0.30452,12.16243 0.30451,4.57615 0.30452,11.40662 0.30451,-24.05407 0.30452,25.26712 0.30452,-4.17356 0.30451,4.87427 0.30452,-11.03859 0.30451,14.53855 0.30452,-13.33025 0.30452,6.37665 0.30451,-4.54019 0.30452,16.8134 0.30451,-4.54372 0.30452,-10.11131 0.30452,8.67964 0.30451,24.5906 0.30452,-6.30096 0.30451,-24.74287 0.30452,5.76399 0.60903,-37.66108 0.30452,14.73892 0.91354,-54.60856 0.30452,1.14839 0.30452,6.37387 0.30451,-8.96404 0.30452,-17.181679 0.60903,-9.745415 0.60903,39.691274 0.60903,-17.36143 0.60903,-20.51387 0.30452,15.21273 0.30452,-12.639371 0.30451,-0.717079 0.60903,9.99783 0.30452,-3.686673 0.30452,4.050273 0.91354,48.70224 0.30452,-4.4625 0.60903,-22.57383 0.30452,8.4709 0.30451,4.84023 0.30452,13.05591 0.60903,-15.72823 0.30452,17.7936 0.30451,-9.69003 0.60903,2.12182 0.30452,-19.9497 0.30452,-11.30564 0.30451,-3.32739 0.30452,16.79684 0.30451,6.64831 0.30452,-17.5187 0.30452,10.46566 0.30451,-12.81441 0.60903,5.20071 0.30452,-9.14025 0.30452,31.13003 0.30451,-7.48786 0.30452,16.76435 0.30451,-6.37076 0.30452,-3.76768 0.60903,-38.26887 0.30452,5.51307 0.30451,-11.05978 0.30452,13.18061 0.60903,43.23643 0.30452,7.19256 0.30451,2.12256 0.30452,0.63578 0.30451,11.32967 0.30452,25.24593 0.30452,-3.80323 0.30451,-0.23189 0.30452,-6.23288 0.30451,-1.9527 0.30452,-9.77835 0.30451,23.26628 0.30452,-7.98206 0.30452,-20.62667 0.30451,2.25763 0.30452,-10.43243 0.60903,11.6257 0.30452,-30.54301 0.60903,47.73941 0.30451,-8.51463 0.30452,-2.84901 0.30452,8.04987 0.30451,1.41585 0.30452,2.86417 0.30451,-23.66787 0.30452,6.57825 0.30452,2.54548 0.30451,6.31797 0.30452,11.98036 0.30451,-3.01904 0.30452,15.48644 0.30451,6.33863 0.30452,-8.86178 0.91355,-60.42472 0.30451,-0.89864 0.30452,19.37659 0.30452,11.0152 0.30451,24.66247 0.30452,6.03111 0.30451,3.18307 0.30452,9.11734 0.30452,-10.90018 0.30451,-0.942 0.30452,-1.60045 0.30451,10.10317 0.30452,-17.51117 0.30451,-0.59444 0.30452,14.16488 0.60903,-17.79589 0.60903,-30.21674 0.30452,1.75959 0.30452,-21.42593 0.30451,12.21377 0.60903,-12.40665 0.30452,3.69317 0.60903,-13.10522 0.60903,16.23305 0.60903,-14.78931 0.30452,10.50452 0.30452,-10.73459 0.30451,3.63964 0.91355,44.26949 0.30452,-14.57218 0.30451,11.83006 0.30452,6.89364 0.30451,12.82469 0.60904,2.4033 0.30451,9.29065 0.30452,-7.93111 0.30451,1.51859 0.30452,-13.73357 0.30452,-23.22418 0.30451,1.20338 0.30452,9.15899 0.30451,-6.15068 0.30452,0.42599 0.30451,-19.05654 0.30452,1.61252 0.30452,-12.85559 0.30451,0.99082 0.30452,-13.86449 0.30451,-1.34685 0.30452,14.73068 0.30452,-9.23981 0.30451,2.08054 0.30452,-8.3063 0.30451,0.88137 0.30452,-13.0657 0.60903,15.19653 0.30452,-2.56503 0.30451,-13.23528 0.30452,-3.63013 0.60903,-14.104809 0.30452,0.55474 0.30451,14.485879 0.30452,-3.68872 0.30451,-15.032053 0.30452,0.397511 0.30452,-5.816002 0.30451,14.599044 0.30452,0.19948 0.60903,5.77214 0.30452,-3.92177 0.30451,0.82075 0.30452,0.091 0.30451,-6.96893 0.30452,-0.08132 0.91355,5.36449 0.60903,51.96071 0.30451,6.34772 0.30452,-15.02078 0.30452,18.78845 0.30451,11.79271 0.30452,-11.73984 0.30451,-0.71622 0.30452,4.21141 0.30452,1.01407 0.30451,24.51175 0.30452,-2.49765 0.30451,13.37722 0.30452,-15.38509 0.30452,-9.20519 0.30451,18.53495 0.30452,-0.33703 0.30451,3.57504 0.30452,-0.46743 0.30451,3.11236 0.30452,-31.89602 0.30452,3.0225 0.30451,18.84362 0.30452,-18.84448 0.30451,21.41737 0.30452,6.67858 0.30452,-23.66064 0.30451,9.96896 0.30452,17.54749 0.30451,-6.59223 0.30452,8.24297 0.30452,-3.57271 0.30451,-1.58042 0.30452,4.17417 0.60903,-11.58374 0.30451,1.12408 0.30452,-24.79055 0.30452,6.47476 0.30451,12.55163 0.60903,9.82806 0.30452,-9.36637 0.30452,2.46601 0.30451,15.61414 0.30452,-5.06686 0.30451,-16.49349 0.30452,-2.51765 0.91355,-23.80024 0.30451,28.68523 0.30452,1.56916 0.30452,-33.51055 0.30451,10.80431 0.60903,7.5516 0.30452,-7.49046 0.30451,-2.7391 0.30452,12.22404 0.30452,28.22457 0.30451,-25.30447 0.60903,-28.27571 0.30452,29.88595 0.30452,8.14307 0.30451,-4.07051 0.30452,-2.33986 0.30451,2.06885 0.30452,-2.83567 0.30452,19.69386 0.30451,-5.77934 0.30452,-3.64184 0.30451,9.91386 0.30452,-11.5606 0.30452,12.98511 0.30451,-6.76322 0.30452,-23.87872 0.30451,10.23821 0.30452,-3.06334 0.30451,14.77123 0.30452,2.48435 0.30452,4.10419 0.30451,7.20897 0.30452,-7.42632 0.30451,-0.76922 0.30452,-7.42256 0.30452,1.42182 0.30451,6.88527 0.30452,0.55945 0.30451,-9.46436 0.30452,-0.85733 0.30451,8.28055 0.30452,-1.79339 0.30452,-5.68863 0.30451,9.8864 0.30452,-1.53531 0.30451,12.24682 0.30452,-0.46256 0.30452,-22.38432 0.30451,-1.31309 0.30452,-10.21688 0.30451,4.21955 0.30452,-9.42118 0.30452,2.90195 0.30451,0.98977 0.30452,-0.22866 0.30451,-20.84517 0.30452,-8.6029 0.30452,13.40643 0.30451,-3.42069 0.60903,45.75538 0.30452,-2.27062 0.30451,-11.33585 0.30452,2.6411 0.30452,-6.48896 0.30451,10.35593 0.30452,0.82095 1.21806,-17.67125 0.30452,-22.94347 0.30451,9.94658 0.30452,-25.87296 0.30452,-8.65512 0.30451,-1.83878 0.30452,11.67259 0.30451,19.14988 0.30452,5.7629 0.30451,11.60297 0.30452,-8.79927 0.30452,7.60742 0.30451,18.04097 0.30452,-4.39968 0.30452,-15.45517 0.60903,29.26731 0.30451,-14.76481 0.30452,-1.31797 0.30451,-11.58853 0.30452,9.14972 0.30452,2.89849 0.30451,8.48907 0.30452,-7.64253 0.30451,9.71367 0.60904,-11.18001 0.30451,-2.37728 0.30452,-8.36689 0.30451,-0.46313 0.30452,-17.26748 0.30451,4.25656 0.30452,-3.86809 0.30452,14.1087 0.30451,20.02164 0.30452,-2.30901 0.30451,-13.59647 0.30452,9.26966 0.30452,1.83577 0.30451,-5.13044 0.30452,-0.13716 0.30451,-3.06512 0.30452,6.50873 0.30452,3.31182 0.30451,7.78819 0.30452,-21.75955 0.60903,6.64222 0.30452,9.85867 0.30451,0.74794 0.30452,6.8964 0.30451,9.45346 0.30452,-12.99112 0.30451,-30.93239 0.30452,0.14778 0.30452,-6.13674 0.30451,15.38031 0.30452,-24.74825 0.60903,25.16046 0.30452,-0.53986 0.30451,-20.77112 0.30452,1.57873 0.30451,5.07656 0.30452,13.78294 0.30451,-22.77203 0.30452,3.53122 0.30452,4.85878 0.30451,1.41183 0.30452,-9.18564 0.30451,15.80919 0.91355,17.02185 0.30452,17.32113 0.30451,-4.54162 0.30452,-14.40975 0.30452,-8.14663 0.30451,21.31196 0.30452,-11.1486 0.30451,-16.19852 0.60904,32.27311 0.30451,-3.16235 0.30452,-23.23738 0.30451,3.10074 0.30452,0.56157 0.30452,15.55047 0.30451,-23.77054 0.30452,16.30541 0.30451,2.40401 0.30452,13.10647 0.30451,-11.77995 0.30452,3.95661 0.30452,-6.53144 0.30451,4.9201 0.91355,-29.20467 0.30452,-3.606 0.30451,23.27107 0.30452,-36.64657 0.30451,3.09898 0.30452,0.29073 0.30452,3.62412 0.30451,-10.88361 0.30452,-16.1847 0.30451,-3.72451 0.30452,-10.34149 0.30452,10.01297 0.30451,-6.00573 0.30452,-12.75178 0.30451,6.55776 0.30452,12.68535 0.30451,-2.14487 0.30452,26.37973 0.30452,4.84519 0.30451,6.77482 0.30452,10.43102 0.30451,16.87103 0.30452,2.68411 0.30452,-1.11032 0.30451,-4.95686 0.30452,-17.62654 0.60903,-16.2907 0.30451,-1.20005 0.30452,13.73693 0.30452,-9.80443 0.30451,1.93931 0.60903,21.3323 0.30452,0.20027 0.30452,-1.79457 0.30451,-0.31711 0.30452,22.28434 0.30451,7.02523 0.30452,-1.45149 0.30452,2.96785 0.30451,-3.78908 0.30452,-14.59369 0.30451,6.79399 0.30452,1.8101 0.30451,0.62496 0.30452,-4.22343 0.30452,-10.87981 0.30451,-5.3985 0.30452,-0.112 0.60903,-14.01639 0.30452,2.28069 0.30451,6.02551 0.30452,-1.19927 0.60903,-14.61266 0.30452,14.21133 0.30451,21.88784 0.30452,-0.0705 0.30451,-10.33836 0.30452,7.72075 0.30451,13.33148 0.30452,-8.77703 0.30452,-2.85013 0.30451,-4.9021 0.30452,-1.70783 0.60903,5.88554 0.30452,-8.52544 0.30451,-1.03874 0.30452,13.38215 0.30451,-3.63686 0.30452,-8.6692 0.30452,4.94646 0.30451,-13.29577 0.60903,12.97374 0.30452,-11.34409 0.30452,-0.11876 0.30451,-11.23697 0.30452,1.71046 0.30451,-16.42257 0.30452,18.08585 0.30451,-1.35408 0.30452,13.85561 0.30452,-4.90674 0.30451,18.547 0.30452,-4.56585 0.30451,-0.72452 0.91355,-18.38173 0.30452,7.76445 0.30451,13.65164 0.30452,-13.662 0.30452,0.2773 0.30451,22.31788 0.30452,-31.80496 0.30451,-2.34178 0.60904,19.41039 0.30451,-5.95655 0.30452,2.40125 0.30451,10.77856 0.30452,-4.74238 0.30452,9.66904 0.30451,5.80897 0.30452,-0.67703 0.30451,5.56925 0.30452,-18.37225 0.30451,-9.41331 0.30452,19.65031 0.60903,-7.3926 0.30452,-6.29983 0.30451,8.91451 0.30452,-3.68578 0.30451,-12.16762 0.30452,-20.29303 0.30452,0.27648 0.30451,-12.39058 0.30452,-1.72518 0.30451,19.77571 0.30452,1.36801 0.60903,32.95112 0.30452,-9.66372 0.30451,4.2583 0.30452,-11.40474 0.30452,2.11456 0.30451,-12.73326 0.30452,-3.67919 0.30451,10.68619 0.30452,4.44118 0.30452,2.75636 0.30451,9.504 0.30452,-0.10494 0.60903,-3.14035 0.30452,-18.77141 0.30451,-1.71908 0.30452,13.87346 0.30451,1.61231 0.30452,13.18833 0.60903,-26.69917 0.30452,2.63546 0.30451,5.27761 0.30452,8.64783 0.30451,13.97025 0.60904,-15.12568 0.30451,-11.34179 0.30452,22.93858 0.30451,-3.5277 0.30452,-12.70874 0.30452,1.47916 0.30451,-17.69239 0.30452,3.66054 0.30451,13.0329 0.60904,-1.91076 0.30451,-4.15762 0.30452,12.02263 0.30451,-17.60918 0.30452,7.86224 0.30451,18.20991 0.30452,1.17284 0.60903,-6.99736 0.30452,-18.73678 0.30451,20.46474 0.30452,0.92687 0.30452,6.0985 0.30451,-9.90494 0.30452,-0.0916 0.30451,-2.67555 0.30452,7.38827 0.30451,0.006 0.30452,-6.95819 0.30452,-2.74206 0.30451,-9.61101 0.30452,-3.66308 0.60903,24.49959 0.30452,-5.95183 0.30451,0.9007 0.30452,-13.21865 0.30451,3.62383 0.30452,-27.4881 0.30452,-5.91391 0.30451,-15.52301 0.30452,-4.53314 0.30451,1.68556 0.30452,-4.39047 0.30451,33.8545 0.30452,18.48833 0.30452,2.17187 0.30451,-19.00659 0.30452,16.35889 0.30451,-2.07383 0.30452,19.28449 0.30452,0.71649 0.30451,8.94348 0.30452,4.65242 0.60903,-8.78111 0.30452,-17.46841 0.30451,12.17119 0.30452,-15.55586 0.60903,15.32806 0.30451,-0.526 0.30452,-11.22441 0.30452,-0.1853 0.60903,13.77851 0.30451,16.15264 0.30452,-13.32125 0.30452,10.32019 0.30451,-4.50703 0.30452,-1.4094 0.30451,-0.7694 0.30452,-12.4282 0.30452,-6.02506 0.30451,14.18207 0.30452,5.25584 0.60903,-10.18104 0.30452,-12.03572 0.30451,-4.05327 0.30452,-12.52235 0.30451,11.47915 0.30452,-24.08825 0.30451,9.87161 0.30452,-31.79666 0.30452,7.77306 0.30451,2.19458 0.30452,-21.09804 0.60903,22.73064 0.30452,-1.43101 0.30451,23.29921 0.30452,-7.38052 0.30451,-0.35731 0.30452,13.03372 0.30452,18.19845 0.30451,5.16628 0.30452,-14.52621 0.30451,-0.5325 0.60904,19.08847 0.30451,-18.97086 0.30452,-10.99794 0.30451,6.12704 0.30452,-1.91793 0.30451,2.17823 0.30452,-0.0344 0.30452,12.27861 0.30451,2.87312 0.30452,-14.38148 0.30451,16.33391 0.30452,-14.86679 0.30452,7.85083 0.30451,-15.41533 0.30452,-31.75426 0.60903,-18.29474 0.30452,6.6804 0.30451,-13.08984 0.30452,2.6304 0.30451,-3.36963 0.30452,26.98464 0.30451,5.45531 0.30452,2.16861 0.60903,15.67617 0.30452,0.0855 0.30451,-7.12387 0.30452,3.49786 0.30452,8.99179 0.30451,16.02192 0.30452,-11.11505 0.30451,12.18136 0.30452,-12.32468 0.30452,26.30169 0.60903,-5.00306 0.30451,24.11218 0.30452,-15.48139 0.30452,-5.86541 0.30451,-8.29503 0.30452,14.72535 0.30451,-6.45201 0.30452,-2.60752 0.30451,-1.28768 0.30452,-5.217 0.60903,-4.50335 0.30452,5.25803 0.30451,-1.21701 0.30452,19.4896 0.30452,-7.69572 0.30451,-18.70082 0.30452,14.38662 0.30451,-11.75442 0.60903,5.48118 0.30452,-1.16659 0.30452,-20.26642 0.30451,-1.46517 0.30452,-9.40254 0.60903,13.81347 0.30452,-6.418 0.91354,34.36486 0.30452,5.4454 0.30452,-7.51893 0.30451,3.63386 0.30452,-0.36127 0.30451,1.47805 0.30452,3.83939 0.30452,-0.98264 0.30451,3.55789 0.30452,-4.16675 0.30451,-0.57832 0.30452,-11.06053 0.30451,-17.04476 0.30452,7.75952 0.30452,-17.23741 0.30451,0.18472 0.30452,-0.97728 0.30451,13.68775 0.30452,-8.32195 0.30452,10.54441 0.30451,-0.84811 0.30452,-8.0871 0.30451,17.05879 0.60904,4.36686 0.30451,-20.92961 0.30452,-0.10034 0.30451,-8.97058 0.60903,36.56945 0.30452,-13.55327 0.30452,-22.33759 0.30451,26.04304 0.30452,7.01048 0.30452,-18.10136 0.30451,-6.59175 0.60903,-21.32062 0.60903,-15.694 0.60904,28.31914 0.30451,7.22113 0.30452,15.3418 0.30451,-2.09171 0.30452,3.83653 0.30452,10.35298 0.30451,-1.29064 0,0" />
        </g>
      </g>
      <g
         id="g37920">
        <path
           inkscape:connector-curvature="0"
           id="path37922"
           style="fill:none;stroke:#000000;stroke-width:0.80000001;stroke-linecap:square;stroke-linejoin:miter;stroke-miterlimit:10;stroke-dasharray:none;stroke-opacity:1"
           d="m 28.934375,37.54375 0,217.44" />
        <path
           inkscape:connector-curvature="0"
           id="path37924"
           style="fill:none;stroke:#000000;stroke-width:0.80000001;stroke-linecap:square;stroke-linejoin:miter;stroke-miterlimit:10;stroke-dasharray:none;stroke-opacity:1"
           d="m 698.53438,37.54375 0,217.44" />
        <path
           inkscape:connector-curvature="0"
           id="path37926"
           style="fill:none;stroke:#000000;stroke-width:0.80000001;stroke-linecap:square;stroke-linejoin:miter;stroke-miterlimit:10;stroke-dasharray:none;stroke-opacity:1"
           d="m 28.934375,37.54375 669.600005,0" />
        <path
           inkscape:connector-curvature="0"
           id="path37928"
           style="fill:none;stroke:#000000;stroke-width:0.80000001;stroke-linecap:square;stroke-linejoin:miter;stroke-miterlimit:10;stroke-dasharray:none;stroke-opacity:1"
           d="m 28.934375,254.98375 669.600005,0" />
      </g>
    </g>
    <path
       d="m 152.29669,273.44348 0,-188.20772 -126.527152,0 0,188.20772 126.527152,0 z"
       style="fill:#ffffff;fill-opacity:1;fill-rule:nonzero;stroke:none"
       id="path38011"
       inkscape:connector-curvature="0" />
    <g
       id="g38622"
       transform="matrix(0.98447054,0,0,0.98447054,0.45864254,57.1874)">
      <path
         inkscape:connector-curvature="0"
         id="path38013"
         style="fill:#ffffff;fill-opacity:1;fill-rule:nonzero;stroke:none"
         d="m 132.8553,192.86044 0,-157.150485 -102.06333,0 0,157.150485 102.06333,0 z" />
      <path
         inkscape:connector-curvature="0"
         id="path38015"
         style="fill:#000000;fill-opacity:1;fill-rule:nonzero;stroke:#000000;stroke-width:0.52693772;stroke-linecap:butt;stroke-linejoin:round;stroke-miterlimit:10;stroke-dasharray:none;stroke-opacity:1"
         d="m 132.8553,171.43083 1.64285,0" />
      <path
         inkscape:connector-curvature="0"
         id="path38035"
         style="fill:#000000;fill-opacity:1;fill-rule:nonzero;stroke:#000000;stroke-width:0.52693772;stroke-linecap:butt;stroke-linejoin:round;stroke-miterlimit:10;stroke-dasharray:none;stroke-opacity:1"
         d="m 132.8553,142.85801 1.64285,0" />
      <path
         inkscape:connector-curvature="0"
         id="path38055"
         style="fill:#000000;fill-opacity:1;fill-rule:nonzero;stroke:#000000;stroke-width:0.52693772;stroke-linecap:butt;stroke-linejoin:round;stroke-miterlimit:10;stroke-dasharray:none;stroke-opacity:1"
         d="m 132.8553,114.2852 1.64285,0" />
      <path
         inkscape:connector-curvature="0"
         id="path38061"
         style="fill:#000000;fill-opacity:1;fill-rule:nonzero;stroke:#000000;stroke-width:0.52693772;stroke-linecap:butt;stroke-linejoin:round;stroke-miterlimit:10;stroke-dasharray:none;stroke-opacity:1"
         d="m 132.8553,85.712384 1.64285,0" />
      <path
         inkscape:connector-curvature="0"
         id="path38067"
         style="fill:#000000;fill-opacity:1;fill-rule:nonzero;stroke:#000000;stroke-width:0.52693772;stroke-linecap:butt;stroke-linejoin:round;stroke-miterlimit:10;stroke-dasharray:none;stroke-opacity:1"
         d="m 132.8553,57.139566 1.64285,0" />
      <text
         y="144.52251"
         x="-117.74398"
         id="text38073"
         style="font-variant:normal;font-weight:normal;font-size:6.57140636px;font-family:DejaVuSans;-inkscape-font-specification:DejaVuSans;writing-mode:lr-tb;fill:#000000;fill-opacity:1;fill-rule:nonzero;stroke:none"
         transform="matrix(0,-1,1,0,0,0)">
        <tspan
           id="tspan38075"
           y="144.52251"
           x="-117.74398">x</tspan>
      </text>
      <path
         inkscape:connector-curvature="0"
         id="path38077"
         style="fill:#000000;fill-opacity:1;fill-rule:nonzero;stroke:#000000;stroke-width:0.52693772;stroke-linecap:butt;stroke-linejoin:round;stroke-miterlimit:10;stroke-dasharray:none;stroke-opacity:1"
         d="m 128.21606,192.86044 0,1.64285" />
      <text
         y="129.99826"
         x="-206.59734"
         id="text38079"
         style="font-variant:normal;font-weight:normal;font-size:4.69386196px;font-family:DejaVuSans;-inkscape-font-specification:DejaVuSans;writing-mode:lr-tb;fill:#000000;fill-opacity:1;fill-rule:nonzero;stroke:none"
         transform="matrix(0,-1,1,0,0,0)">
        <tspan
           id="tspan38081"
           sodipodi:role="line"
           y="129.99826"
           x="-206.59734 -203.61203 -202.11938 -199.13409">0.00</tspan>
      </text>
      <path
         inkscape:connector-curvature="0"
         id="path38083"
         style="fill:#000000;fill-opacity:1;fill-rule:nonzero;stroke:#000000;stroke-width:0.52693772;stroke-linecap:butt;stroke-linejoin:round;stroke-miterlimit:10;stroke-dasharray:none;stroke-opacity:1"
         d="m 114.35281,192.86044 0,1.64285" />
      <text
         y="116.13501"
         x="-206.59734"
         id="text38085"
         style="font-variant:normal;font-weight:normal;font-size:4.69386196px;font-family:DejaVuSans;-inkscape-font-specification:DejaVuSans;writing-mode:lr-tb;fill:#000000;fill-opacity:1;fill-rule:nonzero;stroke:none"
         transform="matrix(0,-1,1,0,0,0)">
        <tspan
           id="tspan38087"
           sodipodi:role="line"
           y="116.13501"
           x="-206.59734 -203.61203 -202.11938 -199.13409">0.25</tspan>
      </text>
      <path
         inkscape:connector-curvature="0"
         id="path38089"
         style="fill:#000000;fill-opacity:1;fill-rule:nonzero;stroke:#000000;stroke-width:0.52693772;stroke-linecap:butt;stroke-linejoin:round;stroke-miterlimit:10;stroke-dasharray:none;stroke-opacity:1"
         d="m 100.48957,192.86044 0,1.64285" />
      <text
         y="102.27177"
         x="-206.59734"
         id="text38091"
         style="font-variant:normal;font-weight:normal;font-size:4.69386196px;font-family:DejaVuSans;-inkscape-font-specification:DejaVuSans;writing-mode:lr-tb;fill:#000000;fill-opacity:1;fill-rule:nonzero;stroke:none"
         transform="matrix(0,-1,1,0,0,0)">
        <tspan
           id="tspan38093"
           sodipodi:role="line"
           y="102.27177"
           x="-206.59734 -203.61203 -202.11938 -199.13409">0.50</tspan>
      </text>
      <path
         inkscape:connector-curvature="0"
         id="path38095"
         style="fill:#000000;fill-opacity:1;fill-rule:nonzero;stroke:#000000;stroke-width:0.52693772;stroke-linecap:butt;stroke-linejoin:round;stroke-miterlimit:10;stroke-dasharray:none;stroke-opacity:1"
         d="m 86.62632,192.86044 0,1.64285" />
      <text
         y="88.408524"
         x="-206.59734"
         id="text38097"
         style="font-variant:normal;font-weight:normal;font-size:4.69386196px;font-family:DejaVuSans;-inkscape-font-specification:DejaVuSans;writing-mode:lr-tb;fill:#000000;fill-opacity:1;fill-rule:nonzero;stroke:none"
         transform="matrix(0,-1,1,0,0,0)">
        <tspan
           id="tspan38099"
           sodipodi:role="line"
           y="88.408524"
           x="-206.59734 -203.61203 -202.11938 -199.13409">0.75</tspan>
      </text>
      <path
         inkscape:connector-curvature="0"
         id="path38101"
         style="fill:#000000;fill-opacity:1;fill-rule:nonzero;stroke:#000000;stroke-width:0.52693772;stroke-linecap:butt;stroke-linejoin:round;stroke-miterlimit:10;stroke-dasharray:none;stroke-opacity:1"
         d="m 72.76308,192.86044 0,1.64285" />
      <text
         y="74.54528"
         x="-206.59734"
         id="text38103"
         style="font-variant:normal;font-weight:normal;font-size:4.69386196px;font-family:DejaVuSans;-inkscape-font-specification:DejaVuSans;writing-mode:lr-tb;fill:#000000;fill-opacity:1;fill-rule:nonzero;stroke:none"
         transform="matrix(0,-1,1,0,0,0)">
        <tspan
           id="tspan38105"
           sodipodi:role="line"
           y="74.54528"
           x="-206.59734 -203.61203 -202.11938 -199.13409">1.00</tspan>
      </text>
      <path
         inkscape:connector-curvature="0"
         id="path38107"
         style="fill:#000000;fill-opacity:1;fill-rule:nonzero;stroke:#000000;stroke-width:0.52693772;stroke-linecap:butt;stroke-linejoin:round;stroke-miterlimit:10;stroke-dasharray:none;stroke-opacity:1"
         d="m 58.89983,192.86044 0,1.64285" />
      <text
         y="60.682041"
         x="-206.59734"
         id="text38109"
         style="font-variant:normal;font-weight:normal;font-size:4.69386196px;font-family:DejaVuSans;-inkscape-font-specification:DejaVuSans;writing-mode:lr-tb;fill:#000000;fill-opacity:1;fill-rule:nonzero;stroke:none"
         transform="matrix(0,-1,1,0,0,0)">
        <tspan
           id="tspan38111"
           sodipodi:role="line"
           y="60.682041"
           x="-206.59734 -203.61203 -202.11938 -199.13409">1.25</tspan>
      </text>
      <path
         inkscape:connector-curvature="0"
         id="path38113"
         style="fill:#000000;fill-opacity:1;fill-rule:nonzero;stroke:#000000;stroke-width:0.52693772;stroke-linecap:butt;stroke-linejoin:round;stroke-miterlimit:10;stroke-dasharray:none;stroke-opacity:1"
         d="m 45.036592,192.86044 0,1.64285" />
      <text
         y="46.81879"
         x="-206.59734"
         id="text38115"
         style="font-variant:normal;font-weight:normal;font-size:4.69386196px;font-family:DejaVuSans;-inkscape-font-specification:DejaVuSans;writing-mode:lr-tb;fill:#000000;fill-opacity:1;fill-rule:nonzero;stroke:none"
         transform="matrix(0,-1,1,0,0,0)">
        <tspan
           id="tspan38117"
           sodipodi:role="line"
           y="46.81879"
           x="-206.59734 -203.61203 -202.11938 -199.13409">1.50</tspan>
      </text>
      <path
         inkscape:connector-curvature="0"
         id="path38119"
         style="fill:#000000;fill-opacity:1;fill-rule:nonzero;stroke:#000000;stroke-width:0.52693772;stroke-linecap:butt;stroke-linejoin:round;stroke-miterlimit:10;stroke-dasharray:none;stroke-opacity:1"
         d="m 31.173346,192.86044 0,1.64285" />
      <text
         y="32.955547"
         x="-206.59734"
         id="text38121"
         style="font-variant:normal;font-weight:normal;font-size:4.69386196px;font-family:DejaVuSans;-inkscape-font-specification:DejaVuSans;writing-mode:lr-tb;fill:#000000;fill-opacity:1;fill-rule:nonzero;stroke:none"
         transform="matrix(0,-1,1,0,0,0)">
        <tspan
           id="tspan38123"
           sodipodi:role="line"
           y="32.955547"
           x="-206.59734 -203.61203 -202.11938 -199.13409">1.75</tspan>
      </text>
      <g
         transform="matrix(0.46938618,0,0,-0.46938618,73.41814,215.24705)"
         id="g38125">
        <text
           id="text38127"
           style="font-style:italic;font-variant:normal;font-size:14px;font-family:DejaVuSans;-inkscape-font-specification:DejaVuSans-Oblique;writing-mode:lr-tb;fill:#000000;fill-opacity:1;fill-rule:nonzero;stroke:none"
           transform="matrix(1,0,0,-1,0,0.3671875)">
          <tspan
             id="tspan38129"
             y="0"
             x="0">P</tspan>
        </text>
        <text
           id="text38131"
           style="font-variant:normal;font-weight:normal;font-size:9.80000019px;font-family:DejaVuSans;-inkscape-font-specification:DejaVuSans;writing-mode:lr-tb;fill:#000000;fill-opacity:1;fill-rule:nonzero;stroke:none"
           transform="matrix(1,0,0,-1,11.333483,5.7265625)">
          <tspan
             id="tspan38133"
             y="0"
             x="0">*</tspan>
        </text>
        <text
           id="text38135"
           style="font-variant:normal;font-weight:normal;font-size:14px;font-family:DejaVuSans;-inkscape-font-specification:DejaVuSans;writing-mode:lr-tb;fill:#000000;fill-opacity:1;fill-rule:nonzero;stroke:none"
           transform="matrix(1,0,0,-1,18.525573,0.3671875)">
          <tspan
             id="tspan38137"
             y="0"
             x="0">(</tspan>
        </text>
        <text
           id="text38139"
           style="font-style:italic;font-variant:normal;font-size:14px;font-family:DejaVuSans;-inkscape-font-specification:DejaVuSans-Oblique;writing-mode:lr-tb;fill:#000000;fill-opacity:1;fill-rule:nonzero;stroke:none"
           transform="matrix(1,0,0,-1,23.987487,0.3671875)">
          <tspan
             id="tspan38141"
             y="0"
             x="0">x</tspan>
        </text>
        <text
           id="text38143"
           style="font-variant:normal;font-weight:normal;font-size:14px;font-family:DejaVuSans;-inkscape-font-specification:DejaVuSans;writing-mode:lr-tb;fill:#000000;fill-opacity:1;fill-rule:nonzero;stroke:none"
           transform="matrix(1,0,0,-1,32.272643,0.3671875)">
          <tspan
             id="tspan38145"
             y="0"
             x="0">)</tspan>
        </text>
      </g>
      <g
         transform="matrix(0,-0.46938618,-0.46938618,0,152.29669,218.89524)"
         id="g38147">
        <g
           clip-path="url(#clipPath38151)"
           id="g38149">
          <path
             inkscape:connector-curvature="0"
             id="path38155"
             style="fill:none;stroke:#1f77b4;stroke-width:2.10489416;stroke-linecap:square;stroke-linejoin:round;stroke-miterlimit:10;stroke-dasharray:none;stroke-opacity:1"
             d="m 70.683807,51.302386 38.692873,0.101249 4.26536,0.24819 2.74201,0.35819 2.43735,0.545317 2.13268,0.729788 1.82801,0.871686 1.82801,1.150859 1.52334,1.20729 1.52334,1.460365 1.52334,1.734924 1.82801,2.46593 1.82801,2.896414 1.82801,3.321506 2.13268,4.377122 2.43734,5.568527 3.04669,7.556717 7.00737,17.60219 2.43735,5.41573 2.13267,4.17863 1.82801,3.09103 1.52334,2.19918 1.52335,1.84242 1.52334,1.48085 1.52334,1.1221 1.21867,0.64563 1.21868,0.42975 1.21867,0.22361 1.21867,0.0289 1.52334,-0.21795 1.52335,-0.47476 1.52334,-0.7027 1.82801,-1.10248 2.13267,-1.57944 2.43735,-2.09666 3.35135,-3.20317 10.05406,-9.81908 3.35135,-2.85715 3.04668,-2.293526 2.74202,-1.78748 2.74201,-1.508596 2.43735,-1.098094 2.43734,-0.863707 2.43735,-0.624585 2.43735,-0.380596 2.43734,-0.13085 2.13268,0.09606 2.13268,0.29901 2.13268,0.509604 2.13268,0.729521 2.13267,0.960628 2.13268,1.204934 2.13268,1.464576 2.13268,1.741761 2.13268,2.03872 2.13267,2.35766 2.13268,2.70058 2.13268,3.0693 2.13268,3.46512 2.13268,3.88879 2.13267,4.34009 2.13268,4.81766 2.13268,5.31855 2.43735,6.71491 2.43734,7.40809 2.43735,8.09794 2.74202,9.89757 3.04668,11.86263 3.96069,16.40012 6.39803,26.622 2.43735,9.17656 1.82801,6.14337 1.52334,4.47784 1.52334,3.76959 1.21867,2.42708 0.91401,1.43858 0.914,1.08514 0.91401,0.70942 0.60933,0.25394 0.60934,0.0721 0.60934,-0.11498 0.60933,-0.30677 0.60934,-0.50275 0.91401,-1.12931 0.914,-1.58777 0.91401,-2.05227 0.914,-2.51908 1.21867,-4.08133 1.21868,-4.89195 1.52334,-7.20852 1.52334,-8.33958 1.82801,-11.32722 2.13268,-14.69085 3.04668,-22.75255 5.48403,-41.22927 2.43735,-16.46631 2.13267,-12.775306 1.82802,-9.548205 1.52334,-6.916304 1.52334,-5.970927 1.52334,-5.058104 1.52334,-4.202825 1.21867,-2.797282 1.21868,-2.34353 1.21867,-1.937714 1.21867,-1.580818 1.21868,-1.27213 1.21867,-1.009529 1.52334,-0.957581 1.52334,-0.68886 1.82801,-0.561215 2.13268,-0.399419 2.74202,-0.265433 4.26535,-0.146927 10.05406,-0.03966 20.41277,-4.39e-4 0,0" />
        </g>
      </g>
      <g
         transform="matrix(0,-0.46938618,-0.46938618,0,152.29669,218.89524)"
         id="g38157">
        <path
           inkscape:connector-curvature="0"
           id="path38159"
           style="fill:none;stroke:#000000;stroke-width:1.12261021;stroke-linecap:square;stroke-linejoin:miter;stroke-miterlimit:10;stroke-dasharray:none;stroke-opacity:1"
           d="m 55.465625,41.41875 0,217.44" />
        <path
           inkscape:connector-curvature="0"
           id="path38161"
           style="fill:none;stroke:#000000;stroke-width:1.12261021;stroke-linecap:square;stroke-linejoin:miter;stroke-miterlimit:10;stroke-dasharray:none;stroke-opacity:1"
           d="m 390.26562,41.41875 0,217.44" />
        <path
           inkscape:connector-curvature="0"
           id="path38163"
           style="fill:none;stroke:#000000;stroke-width:1.12261021;stroke-linecap:square;stroke-linejoin:miter;stroke-miterlimit:10;stroke-dasharray:none;stroke-opacity:1"
           d="m 55.465625,41.41875 334.799995,0" />
        <path
           inkscape:connector-curvature="0"
           id="path38165"
           style="fill:none;stroke:#000000;stroke-width:1.12261021;stroke-linecap:square;stroke-linejoin:miter;stroke-miterlimit:10;stroke-dasharray:none;stroke-opacity:1"
           d="m 55.465625,258.85875 334.799995,0" />
      </g>
    </g>
    <path
       d="m 730.09204,269.05503 0,-181.79272 -124.64308,0 0,181.79272 124.64308,0 z"
       style="fill:#ffffff;fill-opacity:1;fill-rule:nonzero;stroke:none"
       id="path38256"
       inkscape:connector-curvature="0" />
    <g
       id="g39109">
      <path
         inkscape:connector-curvature="0"
         id="path38258"
         style="fill:#ffffff;fill-opacity:1;fill-rule:nonzero;stroke:none"
         d="m 710.94015,247.02038 0,-154.810425 -100.54355,0 0,154.810425 100.54355,0 z" />
      <g
         transform="matrix(0,-0.46239673,-0.46239673,0,730.09204,269.05503)"
         id="g38260">
        <g
           clip-path="url(#clipPath38264)"
           id="g38262">
          <path
             inkscape:connector-curvature="0"
             id="path38268"
             style="fill:none;stroke:#1f77b4;stroke-width:1.40235281;stroke-linecap:butt;stroke-linejoin:miter;stroke-miterlimit:10;stroke-dasharray:none;stroke-opacity:1"
             d="m 106.57722,41.41875 0,3.394848 8.81187,0 0,3.394848 2.20297,0 0,3.394847 2.20297,0 0,3.394848 2.20296,0 0,3.394848 2.20297,0 0,6.789695 2.20297,0 0,-3.394847 2.20297,0 0,6.789695 2.20297,0 0,-10.184543 2.20296,0 0,10.184543 2.20297,0 0,27.158782 2.20297,0 0,-20.369086 2.20297,0 0,6.789695 2.20297,0 0,20.369087 2.20296,0 0,-23.763934 2.20297,0 0,6.789695 2.20297,0 0,44.133019 2.20297,0 0,-20.36908 2.20296,0 0,40.73817 2.20297,0 0,-54.317566 2.20297,0 0,-10.184543 2.20297,0 0,54.317559 2.20297,0 0,-44.133016 2.20296,0 0,44.133016 2.20297,0 0,-64.502102 2.20297,0 0,3.394848 2.20297,0 0,30.553634 2.20297,0 0,6.78969 2.20296,0 0,-27.158781 2.20297,0 0,3.394848 2.20297,0 0,-13.579391 2.20297,0 0,13.579391 2.20297,0 0,30.553633 2.20296,0 0,-40.738177 2.20297,0 0,-3.394847 2.20297,0 0,20.369086 2.20297,0 0,-13.579391 2.20297,0 0,-6.789695 6.6089,0 0,16.974238 2.20297,0 0,-23.763934 2.20296,0 0,-10.184543 2.20297,0 0,20.369086 4.40594,0 0,23.763937 2.20297,0 0,-20.369089 2.20296,0 0,-6.789695 2.20297,0 0,-13.579392 2.20297,0 0,23.763935 2.20297,0 0,3.394848 2.20297,0 0,6.789695 2.20296,0 0,-20.369086 2.20297,0 0,33.948474 2.20297,0 0,-13.579388 2.20297,0 0,3.394848 2.20297,0 0,13.57939 2.20296,0 0,-3.39485 2.20297,0 0,-13.579388 2.20297,0 0,47.527868 2.20297,0 0,-44.13302 2.20297,0 0,33.94848 2.20296,0 0,6.78969 2.20297,0 0,3.39485 2.20297,0 0,6.7897 2.20297,0 0,-3.39485 2.20296,0 0,23.76393 2.20297,0 0,-3.39485 2.20297,0 0,-10.18454 2.20297,0 0,67.89696 2.20297,0 0,-54.31757 2.20296,0 0,50.92272 2.20297,0 0,-47.52787 2.20297,0 0,23.76393 2.20297,0 0,13.5794 2.20297,0 0,-10.18455 2.20297,0 0,13.57939 2.20296,0 0,30.55363 2.20297,0 0,-37.34332 2.20297,0 0,-37.34333 2.20297,0 0,40.73818 2.20296,0 0,-37.34333 2.20297,0 0,20.36909 2.20297,0 0,-64.50211 2.20297,0 0,27.15878 2.20297,0 0,-16.97424 2.20296,0 0,10.18455 2.20297,0 0,-50.92272 2.20297,0 0,-13.579391 2.20297,0 0,-30.55363 2.20297,0 0,23.763934 2.20296,0 0,-27.158782 2.20297,0 0,3.394848 4.40594,0 0,-6.789696 2.20296,0 0,-6.789695 4.40594,0 0,-3.394848 0,0" />
        </g>
      </g>
      <path
         d="m 710.94015,225.90987 1.61838,0"
         style="fill:#000000;fill-opacity:1;fill-rule:nonzero;stroke:#000000;stroke-width:0.51875466;stroke-linecap:butt;stroke-linejoin:round;stroke-miterlimit:10;stroke-dasharray:none;stroke-opacity:1"
         id="path38272"
         inkscape:connector-curvature="0" />
      <g
         id="g38274"
         transform="matrix(0,-0.46239673,-0.46239673,0,717.68825,229.31643)">
        <text
           transform="matrix(1,0,0,-1,8.3789063,0)"
           style="font-variant:normal;font-weight:normal;font-size:10px;font-family:DejaVuSans;-inkscape-font-specification:DejaVuSans;writing-mode:lr-tb;fill:#000000;fill-opacity:1;fill-rule:nonzero;stroke:none"
           id="text38276">
          <tspan
             x="0"
             y="0"
             id="tspan38278">2</tspan>
        </text>
        <g
           id="g38280"
           transform="scale(0.01,0.01)">
          <g
             id="g38282">
            <g
               id="g38284"
               clip-path="url(#clipPath38286)">
              <path
                 d="m 106,355 626,0 0,-83 -626,0 0,83"
                 style="fill:#000000;fill-opacity:1;fill-rule:nonzero;stroke:none"
                 id="path38290"
                 inkscape:connector-curvature="0" />
            </g>
          </g>
        </g>
      </g>
      <path
         d="m 710.94015,197.76252 1.61838,0"
         style="fill:#000000;fill-opacity:1;fill-rule:nonzero;stroke:#000000;stroke-width:0.51875466;stroke-linecap:butt;stroke-linejoin:round;stroke-miterlimit:10;stroke-dasharray:none;stroke-opacity:1"
         id="path38292"
         inkscape:connector-curvature="0" />
      <g
         id="g38294"
         transform="matrix(0,-0.46239673,-0.46239673,0,717.68825,201.16908)">
        <text
           transform="matrix(1,0,0,-1,8.3789063,0)"
           style="font-variant:normal;font-weight:normal;font-size:10px;font-family:DejaVuSans;-inkscape-font-specification:DejaVuSans;writing-mode:lr-tb;fill:#000000;fill-opacity:1;fill-rule:nonzero;stroke:none"
           id="text38296">
          <tspan
             x="0"
             y="0"
             id="tspan38298">1</tspan>
        </text>
        <g
           id="g38300"
           transform="scale(0.01,0.01)">
          <g
             id="g38302">
            <g
               id="g38304"
               clip-path="url(#clipPath38306)">
              <path
                 d="m 106,355 626,0 0,-83 -626,0 0,83"
                 style="fill:#000000;fill-opacity:1;fill-rule:nonzero;stroke:none"
                 id="path38310"
                 inkscape:connector-curvature="0" />
            </g>
          </g>
        </g>
      </g>
      <path
         d="m 710.94015,169.61517 1.61838,0"
         style="fill:#000000;fill-opacity:1;fill-rule:nonzero;stroke:#000000;stroke-width:0.51875466;stroke-linecap:butt;stroke-linejoin:round;stroke-miterlimit:10;stroke-dasharray:none;stroke-opacity:1"
         id="path38312"
         inkscape:connector-curvature="0" />
      <text
         y="717.68823"
         x="-171.08543"
         transform="matrix(0,-1,1,0,0,0)"
         style="font-variant:normal;font-weight:normal;font-size:4.62396717px;font-family:DejaVuSans;-inkscape-font-specification:DejaVuSans;writing-mode:lr-tb;fill:#000000;fill-opacity:1;fill-rule:nonzero;stroke:none"
         id="text38314">
        <tspan
           x="-171.08543"
           y="717.68823"
           id="tspan38316">0</tspan>
      </text>
      <path
         d="m 710.94015,141.46782 1.61838,0"
         style="fill:#000000;fill-opacity:1;fill-rule:nonzero;stroke:#000000;stroke-width:0.51875466;stroke-linecap:butt;stroke-linejoin:round;stroke-miterlimit:10;stroke-dasharray:none;stroke-opacity:1"
         id="path38318"
         inkscape:connector-curvature="0" />
      <text
         y="717.68823"
         x="-142.9381"
         transform="matrix(0,-1,1,0,0,0)"
         style="font-variant:normal;font-weight:normal;font-size:4.62396717px;font-family:DejaVuSans;-inkscape-font-specification:DejaVuSans;writing-mode:lr-tb;fill:#000000;fill-opacity:1;fill-rule:nonzero;stroke:none"
         id="text38320">
        <tspan
           x="-142.9381"
           y="717.68823"
           id="tspan38322">1</tspan>
      </text>
      <path
         d="m 710.94015,113.32047 1.61838,0"
         style="fill:#000000;fill-opacity:1;fill-rule:nonzero;stroke:#000000;stroke-width:0.51875466;stroke-linecap:butt;stroke-linejoin:round;stroke-miterlimit:10;stroke-dasharray:none;stroke-opacity:1"
         id="path38324"
         inkscape:connector-curvature="0" />
      <text
         y="717.68823"
         x="-114.79074"
         transform="matrix(0,-1,1,0,0,0)"
         style="font-variant:normal;font-weight:normal;font-size:4.62396717px;font-family:DejaVuSans;-inkscape-font-specification:DejaVuSans;writing-mode:lr-tb;fill:#000000;fill-opacity:1;fill-rule:nonzero;stroke:none"
         id="text38326">
        <tspan
           x="-114.79074"
           y="717.68823"
           id="tspan38328">2</tspan>
      </text>
      <text
         y="725.41895"
         x="-171.52977"
         transform="matrix(0,-1,1,0,0,0)"
         style="font-variant:normal;font-weight:normal;font-size:6.47355413px;font-family:DejaVuSans;-inkscape-font-specification:DejaVuSans;writing-mode:lr-tb;fill:#000000;fill-opacity:1;fill-rule:nonzero;stroke:none"
         id="text38330">
        <tspan
           x="-171.52977"
           y="725.41895"
           id="tspan38332">x</tspan>
      </text>
      <path
         d="m 710.94015,247.02038 0,1.61839"
         style="fill:#000000;fill-opacity:1;fill-rule:nonzero;stroke:#000000;stroke-width:0.51875466;stroke-linecap:butt;stroke-linejoin:round;stroke-miterlimit:10;stroke-dasharray:none;stroke-opacity:1"
         id="path38334"
         inkscape:connector-curvature="0" />
      <text
         y="712.6958"
         x="-257.61215"
         transform="matrix(0,-1,1,0,0,0)"
         style="font-variant:normal;font-weight:normal;font-size:4.62396717px;font-family:DejaVuSans;-inkscape-font-specification:DejaVuSans;writing-mode:lr-tb;fill:#000000;fill-opacity:1;fill-rule:nonzero;stroke:none"
         id="text38336">
        <tspan
           x="-257.61215 -254.67131 -253.20088"
           y="712.6958"
           sodipodi:role="line"
           id="tspan38338">0.0</tspan>
      </text>
      <path
         d="m 699.57826,247.02038 0,1.61839"
         style="fill:#000000;fill-opacity:1;fill-rule:nonzero;stroke:#000000;stroke-width:0.51875466;stroke-linecap:butt;stroke-linejoin:round;stroke-miterlimit:10;stroke-dasharray:none;stroke-opacity:1"
         id="path38340"
         inkscape:connector-curvature="0" />
      <text
         y="701.33392"
         x="-257.61215"
         transform="matrix(0,-1,1,0,0,0)"
         style="font-variant:normal;font-weight:normal;font-size:4.62396717px;font-family:DejaVuSans;-inkscape-font-specification:DejaVuSans;writing-mode:lr-tb;fill:#000000;fill-opacity:1;fill-rule:nonzero;stroke:none"
         id="text38342">
        <tspan
           x="-257.61215 -254.67131 -253.20088"
           y="701.33392"
           sodipodi:role="line"
           id="tspan38344">0.1</tspan>
      </text>
      <path
         d="m 688.21637,247.02038 0,1.61839"
         style="fill:#000000;fill-opacity:1;fill-rule:nonzero;stroke:#000000;stroke-width:0.51875466;stroke-linecap:butt;stroke-linejoin:round;stroke-miterlimit:10;stroke-dasharray:none;stroke-opacity:1"
         id="path38346"
         inkscape:connector-curvature="0" />
      <text
         y="689.97205"
         x="-257.61215"
         transform="matrix(0,-1,1,0,0,0)"
         style="font-variant:normal;font-weight:normal;font-size:4.62396717px;font-family:DejaVuSans;-inkscape-font-specification:DejaVuSans;writing-mode:lr-tb;fill:#000000;fill-opacity:1;fill-rule:nonzero;stroke:none"
         id="text38348">
        <tspan
           x="-257.61215 -254.67131 -253.20088"
           y="689.97205"
           sodipodi:role="line"
           id="tspan38350">0.2</tspan>
      </text>
      <path
         d="m 676.85448,247.02038 0,1.61839"
         style="fill:#000000;fill-opacity:1;fill-rule:nonzero;stroke:#000000;stroke-width:0.51875466;stroke-linecap:butt;stroke-linejoin:round;stroke-miterlimit:10;stroke-dasharray:none;stroke-opacity:1"
         id="path38352"
         inkscape:connector-curvature="0" />
      <text
         y="678.61017"
         x="-257.61215"
         transform="matrix(0,-1,1,0,0,0)"
         style="font-variant:normal;font-weight:normal;font-size:4.62396717px;font-family:DejaVuSans;-inkscape-font-specification:DejaVuSans;writing-mode:lr-tb;fill:#000000;fill-opacity:1;fill-rule:nonzero;stroke:none"
         id="text38354">
        <tspan
           x="-257.61215 -254.67131 -253.20088"
           y="678.61017"
           sodipodi:role="line"
           id="tspan38356">0.3</tspan>
      </text>
      <path
         d="m 665.4926,247.02038 0,1.61839"
         style="fill:#000000;fill-opacity:1;fill-rule:nonzero;stroke:#000000;stroke-width:0.51875466;stroke-linecap:butt;stroke-linejoin:round;stroke-miterlimit:10;stroke-dasharray:none;stroke-opacity:1"
         id="path38358"
         inkscape:connector-curvature="0" />
      <text
         y="667.24823"
         x="-257.61215"
         transform="matrix(0,-1,1,0,0,0)"
         style="font-variant:normal;font-weight:normal;font-size:4.62396717px;font-family:DejaVuSans;-inkscape-font-specification:DejaVuSans;writing-mode:lr-tb;fill:#000000;fill-opacity:1;fill-rule:nonzero;stroke:none"
         id="text38360">
        <tspan
           x="-257.61215 -254.67131 -253.20088"
           y="667.24823"
           sodipodi:role="line"
           id="tspan38362">0.4</tspan>
      </text>
      <path
         d="m 654.13071,247.02038 0,1.61839"
         style="fill:#000000;fill-opacity:1;fill-rule:nonzero;stroke:#000000;stroke-width:0.51875466;stroke-linecap:butt;stroke-linejoin:round;stroke-miterlimit:10;stroke-dasharray:none;stroke-opacity:1"
         id="path38364"
         inkscape:connector-curvature="0" />
      <text
         y="655.88635"
         x="-257.61215"
         transform="matrix(0,-1,1,0,0,0)"
         style="font-variant:normal;font-weight:normal;font-size:4.62396717px;font-family:DejaVuSans;-inkscape-font-specification:DejaVuSans;writing-mode:lr-tb;fill:#000000;fill-opacity:1;fill-rule:nonzero;stroke:none"
         id="text38366">
        <tspan
           x="-257.61215 -254.67131 -253.20088"
           y="655.88635"
           sodipodi:role="line"
           id="tspan38368">0.5</tspan>
      </text>
      <path
         d="m 642.76882,247.02038 0,1.61839"
         style="fill:#000000;fill-opacity:1;fill-rule:nonzero;stroke:#000000;stroke-width:0.51875466;stroke-linecap:butt;stroke-linejoin:round;stroke-miterlimit:10;stroke-dasharray:none;stroke-opacity:1"
         id="path38370"
         inkscape:connector-curvature="0" />
      <text
         y="644.52448"
         x="-257.61215"
         transform="matrix(0,-1,1,0,0,0)"
         style="font-variant:normal;font-weight:normal;font-size:4.62396717px;font-family:DejaVuSans;-inkscape-font-specification:DejaVuSans;writing-mode:lr-tb;fill:#000000;fill-opacity:1;fill-rule:nonzero;stroke:none"
         id="text38372">
        <tspan
           x="-257.61215 -254.67131 -253.20088"
           y="644.52448"
           sodipodi:role="line"
           id="tspan38374">0.6</tspan>
      </text>
      <path
         d="m 631.40694,247.02038 0,1.61839"
         style="fill:#000000;fill-opacity:1;fill-rule:nonzero;stroke:#000000;stroke-width:0.51875466;stroke-linecap:butt;stroke-linejoin:round;stroke-miterlimit:10;stroke-dasharray:none;stroke-opacity:1"
         id="path38376"
         inkscape:connector-curvature="0" />
      <text
         y="633.1626"
         x="-257.61215"
         transform="matrix(0,-1,1,0,0,0)"
         style="font-variant:normal;font-weight:normal;font-size:4.62396717px;font-family:DejaVuSans;-inkscape-font-specification:DejaVuSans;writing-mode:lr-tb;fill:#000000;fill-opacity:1;fill-rule:nonzero;stroke:none"
         id="text38378">
        <tspan
           x="-257.61215 -254.67131 -253.20088"
           y="633.1626"
           sodipodi:role="line"
           id="tspan38380">0.7</tspan>
      </text>
      <path
         d="m 620.04505,247.02038 0,1.61839"
         style="fill:#000000;fill-opacity:1;fill-rule:nonzero;stroke:#000000;stroke-width:0.51875466;stroke-linecap:butt;stroke-linejoin:round;stroke-miterlimit:10;stroke-dasharray:none;stroke-opacity:1"
         id="path38382"
         inkscape:connector-curvature="0" />
      <text
         y="621.80072"
         x="-257.61215"
         transform="matrix(0,-1,1,0,0,0)"
         style="font-variant:normal;font-weight:normal;font-size:4.62396717px;font-family:DejaVuSans;-inkscape-font-specification:DejaVuSans;writing-mode:lr-tb;fill:#000000;fill-opacity:1;fill-rule:nonzero;stroke:none"
         id="text38384">
        <tspan
           x="-257.61215 -254.67131 -253.20088"
           y="621.80072"
           sodipodi:role="line"
           id="tspan38386">0.8</tspan>
      </text>
      <g
         id="g38388"
         transform="matrix(0.46239673,0,0,-0.46239673,654.7385,265.21099)">
        <text
           transform="matrix(1,0,0,-1,0,0.375)"
           style="font-style:italic;font-variant:normal;font-size:14px;font-family:DejaVuSans;-inkscape-font-specification:DejaVuSans-Oblique;writing-mode:lr-tb;fill:#000000;fill-opacity:1;fill-rule:nonzero;stroke:none"
           id="text38390">
          <tspan
             x="0"
             y="0"
             id="tspan38392">P</tspan>
        </text>
        <text
           transform="matrix(1,0,0,-1,8.4423828,0.375)"
           style="font-variant:normal;font-weight:normal;font-size:14px;font-family:DejaVuSans;-inkscape-font-specification:DejaVuSans;writing-mode:lr-tb;fill:#000000;fill-opacity:1;fill-rule:nonzero;stroke:none"
           id="text38394">
          <tspan
             x="0"
             y="0"
             id="tspan38396">(</tspan>
        </text>
        <text
           transform="matrix(1,0,0,-1,13.904297,0.375)"
           style="font-style:italic;font-variant:normal;font-size:14px;font-family:DejaVuSans;-inkscape-font-specification:DejaVuSans-Oblique;writing-mode:lr-tb;fill:#000000;fill-opacity:1;fill-rule:nonzero;stroke:none"
           id="text38398">
          <tspan
             x="0"
             y="0"
             id="tspan38400">x</tspan>
        </text>
        <text
           transform="matrix(1,0,0,-1,22.189453,0.375)"
           style="font-variant:normal;font-weight:normal;font-size:14px;font-family:DejaVuSans;-inkscape-font-specification:DejaVuSans;writing-mode:lr-tb;fill:#000000;fill-opacity:1;fill-rule:nonzero;stroke:none"
           id="text38402">
          <tspan
             x="0"
             y="0"
             id="tspan38404">)</tspan>
        </text>
      </g>
      <g
         transform="matrix(0,-0.46239673,-0.46239673,0,730.09204,269.05503)"
         id="g38406">
        <g
           clip-path="url(#clipPath38410)"
           id="g38408">
          <path
             inkscape:connector-curvature="0"
             id="path38414"
             style="fill:none;stroke:#000000;stroke-width:1.40235281;stroke-linecap:butt;stroke-linejoin:round;stroke-miterlimit:10;stroke-dasharray:5.18870511, 2.24376437;stroke-dashoffset:0;stroke-opacity:1"
             d="m 62.871307,41.41875 38.997543,0.105933 4.26536,0.255078 2.74201,0.36454 2.43735,0.550973 2.13268,0.732838 1.82801,0.870839 1.82801,1.144431 1.52334,1.195646 1.52334,1.441021 1.52334,1.705873 1.82801,2.415387 1.82801,2.825616 1.82801,3.227598 2.13268,4.235684 2.43734,5.363372 3.35135,7.980733 6.09337,14.591546 2.43735,5.226251 2.13268,4.055816 1.82801,3.017915 1.828,2.55208 1.52335,1.75394 1.52334,1.40973 1.52334,1.06821 1.21867,0.61462 1.21868,0.40911 1.21867,0.21287 1.21867,0.0275 1.52334,-0.20749 1.52335,-0.45196 1.52334,-0.66895 1.82801,-1.04954 2.13267,-1.50358 2.43735,-1.99596 3.35135,-3.04933 10.05406,-9.347508 3.35135,-2.719934 3.04668,-2.183374 2.74202,-1.701633 2.74201,-1.436144 2.43735,-1.045356 2.43734,-0.822226 2.43735,-0.594588 2.43735,-0.362318 2.43734,-0.124565 2.43735,0.120133 2.13268,0.312809 2.13268,0.514453 2.13267,0.72522 2.13268,0.946901 2.13268,1.181433 2.13268,1.430862 2.13268,1.697295 2.13267,1.982859 2.13268,2.289619 2.13268,2.619492 2.13268,2.974114 2.13268,3.354696 2.13267,3.7618 2.13268,4.19512 2.13268,4.65313 2.43735,5.90626 2.43734,6.55662 2.43735,7.21761 2.74202,8.89825 2.74201,9.67076 3.35135,12.70545 5.17936,20.71927 3.96069,15.52005 2.43735,8.73584 1.82801,5.84833 1.52334,4.26278 1.52334,3.58856 1.21867,2.31051 0.91401,1.36949 0.914,1.03302 0.91401,0.67535 0.60933,0.24175 0.60934,0.0686 0.60934,-0.10946 0.60933,-0.29204 0.60934,-0.4786 0.91401,-1.07508 0.914,-1.51151 0.91401,-1.95371 0.914,-2.39809 1.21867,-3.88533 1.21868,-4.657 1.52334,-6.86232 1.52334,-7.93906 1.82801,-10.78321 2.13268,-13.98531 3.04668,-21.65981 5.48403,-39.24918 2.43735,-15.675484 2.13267,-12.161758 1.82802,-9.089637 1.52334,-6.584138 1.52334,-5.684165 1.52334,-4.81518 1.52334,-4.000978 1.21867,-2.662938 1.21868,-2.230979 1.21867,-1.844652 1.21867,-1.504896 1.21868,-1.211034 1.52334,-1.167108 1.52334,-0.855047 1.52334,-0.612264 1.82801,-0.496247 2.13268,-0.350974 3.04668,-0.247303 4.8747,-0.121051 14.92874,-0.02363 14.31941,-1.4e-5 0,0" />
        </g>
      </g>
      <path
         d="m 710.94015,247.02038 -100.54355,0"
         style="fill:none;stroke:#000000;stroke-width:0.51875466;stroke-linecap:square;stroke-linejoin:miter;stroke-miterlimit:10;stroke-dasharray:none;stroke-opacity:1"
         id="path38418"
         inkscape:connector-curvature="0" />
      <path
         d="m 710.94015,92.209958 -100.54355,0"
         style="fill:none;stroke:#000000;stroke-width:0.51875466;stroke-linecap:square;stroke-linejoin:miter;stroke-miterlimit:10;stroke-dasharray:none;stroke-opacity:1"
         id="path38420"
         inkscape:connector-curvature="0" />
      <path
         d="m 710.94015,247.02038 0,-154.810422"
         style="fill:none;stroke:#000000;stroke-width:0.51875466;stroke-linecap:square;stroke-linejoin:miter;stroke-miterlimit:10;stroke-dasharray:none;stroke-opacity:1"
         id="path38422"
         inkscape:connector-curvature="0" />
      <path
         d="m 610.3966,247.02038 0,-154.810422"
         style="fill:none;stroke:#000000;stroke-width:0.51875466;stroke-linecap:square;stroke-linejoin:miter;stroke-miterlimit:10;stroke-dasharray:none;stroke-opacity:1"
         id="path38424"
         inkscape:connector-curvature="0" />
      <g
         transform="matrix(0,1.2914415,-1.2828279,0,928.91908,-695.60341)"
         id="g39100">
        <path
           inkscape:connector-curvature="0"
           id="path38426"
           style="fill:#ffffff;fill-opacity:0.8;fill-rule:nonzero;stroke:#cccccc;stroke-width:0.50379109;stroke-linecap:butt;stroke-linejoin:miter;stroke-miterlimit:10;stroke-dasharray:none;stroke-opacity:0.8"
           d="m 627.66423,243.7836 0,-49.93884 c 0,-0.61653 -0.30827,-0.92479 -0.9248,-0.92479 l -13.10605,0 c -0.61653,0 -0.9248,0.30826 -0.9248,0.92479 l 0,49.93884 c 0,0.61653 0.30827,0.9248 0.9248,0.9248 l 13.10605,0 c 0.61653,0 0.9248,-0.30827 0.9248,-0.9248 z" />
        <path
           inkscape:connector-curvature="0"
           id="path38428"
           style="fill:none;stroke:#000000;stroke-width:0.50379109;stroke-linecap:butt;stroke-linejoin:round;stroke-miterlimit:10;stroke-dasharray:1.8640269, 0.80606569;stroke-dashoffset:0;stroke-opacity:1"
           d="m 616.45111,242.85881 0,-9.24793" />
        <text
           id="text38430"
           style="font-variant:normal;font-weight:normal;font-size:4.62396717px;font-family:DejaVuSans;-inkscape-font-specification:DejaVuSans;writing-mode:lr-tb;fill:#000000;fill-opacity:1;fill-rule:nonzero;stroke:none"
           transform="matrix(0,-1,1,0,0,0)"
           x="-229.9117"
           y="618.06952">
          <tspan
             id="tspan38432"
             sodipodi:role="line"
             y="618.06952"
             x="-229.9117 -227.06796 -224.33057 -221.49608 -218.9529 -217.1403 -215.66988 -212.73366 -209.88992 -206.95833 -204.54924 -203.26378 -201.45119">exact density</tspan>
        </text>
        <path
           inkscape:connector-curvature="0"
           id="path38434"
           style="fill:none;stroke:#1f77b4;stroke-width:0.50379109;stroke-linecap:butt;stroke-linejoin:miter;stroke-miterlimit:10;stroke-dasharray:none;stroke-opacity:1"
           d="m 624.85373,242.85881 0,-9.24793 -3.23678,0 0,9.24793 3.23678,0 z" />
        <text
           id="text38436"
           style="font-variant:normal;font-weight:normal;font-size:4.62396717px;font-family:DejaVuSans;-inkscape-font-specification:DejaVuSans;writing-mode:lr-tb;fill:#000000;fill-opacity:1;fill-rule:nonzero;stroke:none"
           transform="matrix(0,-1,1,0,0,0)"
           x="-229.9117"
           y="624.85376">
          <tspan
             id="tspan38438"
             sodipodi:role="line"
             y="624.85376"
             x="-229.9117 -225.92122 -222.69368 -218.7032 -215.47568 -214.00525 -211.59616 -208.76167 -204.25793 -201.32172 -200.03624 -197.1925">MCMC samples</tspan>
        </text>
      </g>
    </g>
    <flowRoot
       style="font-style:normal;font-variant:normal;font-weight:normal;font-stretch:normal;font-size:15px;line-height:125%;font-family:Times;-inkscape-font-specification:Times;letter-spacing:0px;word-spacing:0px;fill:#000000;fill-opacity:1;stroke:none;stroke-width:1px;stroke-linecap:butt;stroke-linejoin:miter;stroke-opacity:1"
       id="flowRoot4136-9-9-1-0-8-3-7-6-3-4-69-8-6-4-4-5"
       xml:space="preserve"
       transform="translate(-285.9441,56.873957)"><flowRegion
         id="flowRegion4138-2-9-3-5-4-3-4-6-7-1-1-0-8-9-0-5"><rect
           style="font-style:normal;font-variant:normal;font-weight:normal;font-stretch:normal;font-size:15px;font-family:Times;-inkscape-font-specification:Times"
           y="-3.7795026"
           x="100.13322"
           height="340.19949"
           width="543.89917"
           id="rect4140-5-5-5-5-9-7-8-4-1-0-8-4-65-7-0-8" /></flowRegion><flowPara
         style="font-style:normal;font-size:15px;text-align:center;text-anchor:middle"
         id="flowPara13989-5-5-8-5-2">unnormalized</flowPara><flowPara
         id="flowPara18934-7-4"
         style="font-style:normal;font-size:15px;text-align:center;text-anchor:middle">distribution</flowPara></flowRoot>    <flowRoot
       style="font-style:normal;font-variant:normal;font-weight:normal;font-stretch:normal;font-size:15px;line-height:125%;font-family:Times;-inkscape-font-specification:Times;letter-spacing:0px;word-spacing:0px;fill:#000000;fill-opacity:1;stroke:none;stroke-width:1px;stroke-linecap:butt;stroke-linejoin:miter;stroke-opacity:1"
       id="flowRoot4136-9-9-1-0-8-3-7-6-3-4-69-8-6-4-4-5-6"
       xml:space="preserve"
       transform="translate(3.7326049,67.985634)"><flowRegion
         id="flowRegion4138-2-9-3-5-4-3-4-6-7-1-1-0-8-9-0-5-6"><rect
           style="font-style:normal;font-variant:normal;font-weight:normal;font-stretch:normal;font-size:15px;font-family:Times;-inkscape-font-specification:Times"
           y="-3.7795026"
           x="100.13322"
           height="340.19949"
           width="543.89917"
           id="rect4140-5-5-5-5-9-7-8-4-1-0-8-4-65-7-0-8-8" /></flowRegion><flowPara
         id="flowPara18934-7-4-2"
         style="font-style:normal;font-size:15px;text-align:center;text-anchor:middle">samples from Markov chain</flowPara></flowRoot>    <flowRoot
       style="font-style:normal;font-variant:normal;font-weight:normal;font-stretch:normal;font-size:15px;line-height:125%;font-family:Times;-inkscape-font-specification:Times;letter-spacing:0px;word-spacing:0px;fill:#000000;fill-opacity:1;stroke:none;stroke-width:1px;stroke-linecap:butt;stroke-linejoin:miter;stroke-opacity:1"
       id="flowRoot4136-9-9-1-0-8-3-7-6-3-4-69-8-6-4-4-5-7"
       xml:space="preserve"
       transform="translate(289.8086,56.873957)"><flowRegion
         id="flowRegion4138-2-9-3-5-4-3-4-6-7-1-1-0-8-9-0-5-5"><rect
           style="font-style:normal;font-variant:normal;font-weight:normal;font-stretch:normal;font-size:15px;font-family:Times;-inkscape-font-specification:Times"
           y="-3.7795026"
           x="100.13322"
           height="340.19949"
           width="543.89917"
           id="rect4140-5-5-5-5-9-7-8-4-1-0-8-4-65-7-0-8-0" /></flowRegion><flowPara
         id="flowPara18934-7-4-24"
         style="font-style:normal;font-size:15px;text-align:center;text-anchor:middle">histogram</flowPara><flowPara
         style="font-style:normal;font-size:15px;text-align:center;text-anchor:middle"
         id="flowPara39004">of samples</flowPara></flowRoot>  </g>
</svg>
